<mxfile host="65bd71144e">
    <diagram id="PMe3w911ehjpML2P2UXe" name="module">
        <mxGraphModel dx="917" dy="-2854" grid="1" gridSize="10" guides="1" tooltips="1" connect="1" arrows="1" fold="1" page="1" pageScale="1" pageWidth="850" pageHeight="1100" math="0" shadow="0">
            <root>
                <mxCell id="0"/>
                <mxCell id="1" parent="0"/>
                <mxCell id="2" value="Linux Hardware Module" style="rounded=0;whiteSpace=wrap;html=1;align=left;verticalAlign=top;fontSize=15;fontStyle=1" parent="1" vertex="1">
                    <mxGeometry x="116.5" y="3544" width="632" height="467" as="geometry"/>
                </mxCell>
                <mxCell id="3" value="i2c bus device" style="rounded=0;whiteSpace=wrap;html=1;fillColor=#dae8fc;strokeColor=#6c8ebf;align=right;verticalAlign=bottom;" parent="1" vertex="1">
                    <mxGeometry x="520.5" y="3872" width="210" height="110" as="geometry"/>
                </mxCell>
                <mxCell id="4" value="input class" style="rounded=0;whiteSpace=wrap;html=1;fillColor=#ffe6cc;strokeColor=#d79b00;align=left;verticalAlign=top;" parent="1" vertex="1">
                    <mxGeometry x="400.5" y="3882" width="210" height="80" as="geometry"/>
                </mxCell>
                <mxCell id="5" value="" style="rounded=0;whiteSpace=wrap;html=1;fillColor=#d5e8d4;strokeColor=#82b366;" parent="1" vertex="1">
                    <mxGeometry x="140.5" y="3582" width="460" height="240" as="geometry"/>
                </mxCell>
                <mxCell id="6" value="" style="rounded=0;whiteSpace=wrap;html=1;" parent="1" vertex="1">
                    <mxGeometry x="160.5" y="3712" width="430" height="10" as="geometry"/>
                </mxCell>
                <mxCell id="7" style="edgeStyle=none;html=1;exitX=0.5;exitY=1;exitDx=0;exitDy=0;startArrow=classic;startFill=1;entryX=0.141;entryY=-0.244;entryDx=0;entryDy=0;entryPerimeter=0;" parent="1" source="8" target="6" edge="1">
                    <mxGeometry relative="1" as="geometry">
                        <mxPoint x="220.5" y="3712" as="targetPoint"/>
                    </mxGeometry>
                </mxCell>
                <mxCell id="8" value="ARM Core" style="rounded=0;whiteSpace=wrap;html=1;" parent="1" vertex="1">
                    <mxGeometry x="160.5" y="3602" width="120" height="70" as="geometry"/>
                </mxCell>
                <mxCell id="9" style="edgeStyle=none;html=1;exitX=0.5;exitY=0;exitDx=0;exitDy=0;entryX=0.709;entryY=1.1;entryDx=0;entryDy=0;entryPerimeter=0;startArrow=classic;startFill=1;" parent="1" source="11" target="6" edge="1">
                    <mxGeometry relative="1" as="geometry"/>
                </mxCell>
                <mxCell id="10" style="edgeStyle=none;html=1;startArrow=classic;startFill=1;entryX=0.5;entryY=0;entryDx=0;entryDy=0;" parent="1" source="11" target="28" edge="1">
                    <mxGeometry relative="1" as="geometry">
                        <mxPoint x="465.5" y="3832" as="targetPoint"/>
                    </mxGeometry>
                </mxCell>
                <mxCell id="11" value="GPIO" style="rounded=0;whiteSpace=wrap;html=1;" parent="1" vertex="1">
                    <mxGeometry x="430.5" y="3762" width="70" height="40" as="geometry"/>
                </mxCell>
                <mxCell id="12" style="edgeStyle=none;html=1;exitX=0.5;exitY=0;exitDx=0;exitDy=0;entryX=0.921;entryY=1;entryDx=0;entryDy=0;entryPerimeter=0;startArrow=classic;startFill=1;" parent="1" source="14" target="6" edge="1">
                    <mxGeometry relative="1" as="geometry"/>
                </mxCell>
                <mxCell id="13" style="edgeStyle=none;html=1;exitX=0.5;exitY=1;exitDx=0;exitDy=0;entryX=0.204;entryY=0.041;entryDx=0;entryDy=0;entryPerimeter=0;startArrow=classic;startFill=1;" parent="1" source="14" target="16" edge="1">
                    <mxGeometry relative="1" as="geometry"/>
                </mxCell>
                <mxCell id="14" value="i2c" style="rounded=0;whiteSpace=wrap;html=1;" parent="1" vertex="1">
                    <mxGeometry x="520.5" y="3762" width="70" height="40" as="geometry"/>
                </mxCell>
                <mxCell id="15" style="edgeStyle=none;html=1;exitX=0.25;exitY=1;exitDx=0;exitDy=0;startArrow=classic;startFill=1;" parent="1" source="16" target="25" edge="1">
                    <mxGeometry relative="1" as="geometry"/>
                </mxCell>
                <mxCell id="16" value="" style="rounded=0;whiteSpace=wrap;html=1;" parent="1" vertex="1">
                    <mxGeometry x="510.5" y="3852" width="220" height="10" as="geometry"/>
                </mxCell>
                <mxCell id="17" value="platform bus" style="text;html=1;strokeColor=none;fillColor=none;align=center;verticalAlign=middle;whiteSpace=wrap;rounded=0;" parent="1" vertex="1">
                    <mxGeometry x="490.5" y="3682" width="85" height="30" as="geometry"/>
                </mxCell>
                <mxCell id="18" value="i2c bus" style="text;html=1;strokeColor=none;fillColor=none;align=center;verticalAlign=middle;whiteSpace=wrap;rounded=0;" parent="1" vertex="1">
                    <mxGeometry x="630.5" y="3822" width="85" height="30" as="geometry"/>
                </mxCell>
                <mxCell id="19" style="edgeStyle=none;html=1;exitX=0.5;exitY=0;exitDx=0;exitDy=0;entryX=0.295;entryY=1;entryDx=0;entryDy=0;entryPerimeter=0;startArrow=classic;startFill=1;" parent="1" source="20" target="6" edge="1">
                    <mxGeometry relative="1" as="geometry"/>
                </mxCell>
                <mxCell id="20" value="UART" style="rounded=0;whiteSpace=wrap;html=1;" parent="1" vertex="1">
                    <mxGeometry x="250.5" y="3762" width="70" height="40" as="geometry"/>
                </mxCell>
                <mxCell id="21" style="edgeStyle=none;html=1;exitX=0.5;exitY=0;exitDx=0;exitDy=0;entryX=0.5;entryY=1;entryDx=0;entryDy=0;startArrow=classic;startFill=1;" parent="1" source="22" target="6" edge="1">
                    <mxGeometry relative="1" as="geometry"/>
                </mxCell>
                <mxCell id="22" value="LCD" style="rounded=0;whiteSpace=wrap;html=1;" parent="1" vertex="1">
                    <mxGeometry x="340.5" y="3762" width="70" height="40" as="geometry"/>
                </mxCell>
                <mxCell id="23" style="edgeStyle=none;html=1;exitX=0.5;exitY=0;exitDx=0;exitDy=0;entryX=0.084;entryY=1.157;entryDx=0;entryDy=0;entryPerimeter=0;startArrow=classic;startFill=1;" parent="1" source="24" target="6" edge="1">
                    <mxGeometry relative="1" as="geometry"/>
                </mxCell>
                <mxCell id="24" value="SPI" style="rounded=0;whiteSpace=wrap;html=1;" parent="1" vertex="1">
                    <mxGeometry x="160.5" y="3762" width="70" height="40" as="geometry"/>
                </mxCell>
                <mxCell id="25" value="TouchScreen" style="rounded=0;whiteSpace=wrap;html=1;" parent="1" vertex="1">
                    <mxGeometry x="530.5" y="3912" width="70" height="40" as="geometry"/>
                </mxCell>
                <mxCell id="26" style="edgeStyle=none;html=1;entryX=0.75;entryY=1;entryDx=0;entryDy=0;startArrow=classic;startFill=1;" parent="1" source="27" target="16" edge="1">
                    <mxGeometry relative="1" as="geometry"/>
                </mxCell>
                <mxCell id="27" value="ap3216c" style="rounded=0;whiteSpace=wrap;html=1;" parent="1" vertex="1">
                    <mxGeometry x="638" y="3912" width="70" height="40" as="geometry"/>
                </mxCell>
                <mxCell id="28" value="key" style="rounded=0;whiteSpace=wrap;html=1;" parent="1" vertex="1">
                    <mxGeometry x="430.5" y="3912" width="70" height="40" as="geometry"/>
                </mxCell>
                <mxCell id="29" value="驱动模型" style="text;html=1;align=center;verticalAlign=middle;whiteSpace=wrap;rounded=0;fontSize=17;" parent="1" vertex="1">
                    <mxGeometry x="31" y="3367" width="99" height="30" as="geometry"/>
                </mxCell>
                <mxCell id="98" value="" style="rounded=0;whiteSpace=wrap;html=1;fontSize=18;" parent="1" vertex="1">
                    <mxGeometry x="25" y="5800" width="790" height="350" as="geometry"/>
                </mxCell>
                <mxCell id="99" style="edgeStyle=none;html=1;exitX=0.5;exitY=1;exitDx=0;exitDy=0;entryX=0.5;entryY=0;entryDx=0;entryDy=0;fontSize=14;verticalAlign=middle;fontStyle=0;horizontal=1;" parent="1" source="102" target="104" edge="1">
                    <mxGeometry relative="1" as="geometry">
                        <Array as="points">
                            <mxPoint x="260" y="4750"/>
                            <mxPoint x="60" y="4750"/>
                        </Array>
                    </mxGeometry>
                </mxCell>
                <mxCell id="100" style="edgeStyle=none;html=1;exitX=0.5;exitY=1;exitDx=0;exitDy=0;fontSize=14;verticalAlign=middle;fontStyle=0;horizontal=1;" parent="1" source="102" target="111" edge="1">
                    <mxGeometry relative="1" as="geometry"/>
                </mxCell>
                <mxCell id="101" style="edgeStyle=none;html=1;exitX=0.5;exitY=1;exitDx=0;exitDy=0;entryX=0.5;entryY=0;entryDx=0;entryDy=0;fontSize=14;verticalAlign=middle;fontStyle=0;horizontal=1;" parent="1" source="102" target="110" edge="1">
                    <mxGeometry relative="1" as="geometry">
                        <Array as="points">
                            <mxPoint x="260" y="4750"/>
                            <mxPoint x="460" y="4750"/>
                        </Array>
                    </mxGeometry>
                </mxCell>
                <mxCell id="102" value="/（根节点）" style="rounded=0;whiteSpace=wrap;html=1;fontSize=14;align=right;verticalAlign=middle;fontStyle=0;horizontal=1;" parent="1" vertex="1">
                    <mxGeometry x="220" y="4670" width="80" height="40" as="geometry"/>
                </mxCell>
                <mxCell id="103" value="" style="edgeStyle=none;html=1;fontSize=14;verticalAlign=middle;fontStyle=0;horizontal=1;" parent="1" source="104" target="112" edge="1">
                    <mxGeometry relative="1" as="geometry"/>
                </mxCell>
                <mxCell id="104" value="cpus&amp;nbsp;" style="rounded=0;whiteSpace=wrap;html=1;fontSize=14;align=center;verticalAlign=middle;fontStyle=0;horizontal=1;" parent="1" vertex="1">
                    <mxGeometry x="20" y="4790" width="80" height="40" as="geometry"/>
                </mxCell>
                <mxCell id="105" style="edgeStyle=none;html=1;entryX=0.5;entryY=0;entryDx=0;entryDy=0;fontSize=14;exitX=0.5;exitY=1;exitDx=0;exitDy=0;verticalAlign=middle;fontStyle=0;horizontal=1;" parent="1" source="110" target="113" edge="1">
                    <mxGeometry relative="1" as="geometry"/>
                </mxCell>
                <mxCell id="106" style="html=1;entryX=0.5;entryY=0;entryDx=0;entryDy=0;fontSize=14;exitX=0.5;exitY=1;exitDx=0;exitDy=0;verticalAlign=middle;fontStyle=0;horizontal=1;" parent="1" source="110" target="114" edge="1">
                    <mxGeometry relative="1" as="geometry"/>
                </mxCell>
                <mxCell id="107" style="edgeStyle=none;html=1;exitX=0.5;exitY=1;exitDx=0;exitDy=0;entryX=0.5;entryY=0;entryDx=0;entryDy=0;fontSize=14;verticalAlign=middle;fontStyle=0;horizontal=1;" parent="1" source="110" target="120" edge="1">
                    <mxGeometry relative="1" as="geometry"/>
                </mxCell>
                <mxCell id="108" style="edgeStyle=none;html=1;entryX=0.5;entryY=0;entryDx=0;entryDy=0;fontSize=14;exitX=0.5;exitY=1;exitDx=0;exitDy=0;verticalAlign=middle;fontStyle=0;horizontal=1;" parent="1" source="110" target="124" edge="1">
                    <mxGeometry relative="1" as="geometry"/>
                </mxCell>
                <mxCell id="109" style="edgeStyle=none;html=1;exitX=0.5;exitY=1;exitDx=0;exitDy=0;entryX=0.5;entryY=0;entryDx=0;entryDy=0;fontSize=14;verticalAlign=middle;fontStyle=0;horizontal=1;" parent="1" source="110" target="127" edge="1">
                    <mxGeometry relative="1" as="geometry"/>
                </mxCell>
                <mxCell id="110" value="soc" style="rounded=0;whiteSpace=wrap;html=1;fontSize=14;align=center;verticalAlign=middle;fontStyle=0;horizontal=1;" parent="1" vertex="1">
                    <mxGeometry x="420" y="4790" width="80" height="40" as="geometry"/>
                </mxCell>
                <mxCell id="111" value="pmu" style="rounded=0;whiteSpace=wrap;html=1;fontSize=14;align=center;verticalAlign=middle;fontStyle=0;horizontal=1;" parent="1" vertex="1">
                    <mxGeometry x="220" y="4790" width="80" height="40" as="geometry"/>
                </mxCell>
                <mxCell id="112" value="cpu@0&lt;br style=&quot;font-size: 14px;&quot;&gt;" style="rounded=0;whiteSpace=wrap;html=1;fontSize=14;align=center;verticalAlign=middle;fontStyle=0;horizontal=1;" parent="1" vertex="1">
                    <mxGeometry x="20" y="4910" width="80" height="40" as="geometry"/>
                </mxCell>
                <mxCell id="113" value="busfreq" style="rounded=0;whiteSpace=wrap;html=1;fontSize=14;align=center;verticalAlign=middle;fontStyle=0;horizontal=1;" parent="1" vertex="1">
                    <mxGeometry x="130" y="4910" width="50" height="40" as="geometry"/>
                </mxCell>
                <mxCell id="114" value="intc" style="rounded=0;whiteSpace=wrap;html=1;fontSize=14;align=center;verticalAlign=middle;fontStyle=0;horizontal=1;" parent="1" vertex="1">
                    <mxGeometry x="220" y="4910" width="40" height="40" as="geometry"/>
                </mxCell>
                <mxCell id="115" style="edgeStyle=none;html=1;entryX=0.5;entryY=0;entryDx=0;entryDy=0;fontSize=14;exitX=0.5;exitY=1;exitDx=0;exitDy=0;verticalAlign=middle;fontStyle=0;horizontal=1;" parent="1" source="120" target="129" edge="1">
                    <mxGeometry relative="1" as="geometry"/>
                </mxCell>
                <mxCell id="116" style="edgeStyle=none;html=1;exitX=0.5;exitY=1;exitDx=0;exitDy=0;entryX=0.5;entryY=0;entryDx=0;entryDy=0;fontSize=14;verticalAlign=middle;fontStyle=0;horizontal=1;" parent="1" source="120" target="130" edge="1">
                    <mxGeometry relative="1" as="geometry"/>
                </mxCell>
                <mxCell id="117" style="edgeStyle=none;html=1;exitX=0.5;exitY=1;exitDx=0;exitDy=0;entryX=0.5;entryY=0;entryDx=0;entryDy=0;fontSize=14;verticalAlign=middle;fontStyle=0;horizontal=1;" parent="1" source="120" target="133" edge="1">
                    <mxGeometry relative="1" as="geometry"/>
                </mxCell>
                <mxCell id="118" style="edgeStyle=none;html=1;exitX=0.5;exitY=1;exitDx=0;exitDy=0;entryX=0.5;entryY=0;entryDx=0;entryDy=0;fontSize=14;verticalAlign=middle;fontStyle=0;horizontal=1;" parent="1" source="120" target="134" edge="1">
                    <mxGeometry relative="1" as="geometry"/>
                </mxCell>
                <mxCell id="119" style="edgeStyle=none;html=1;exitX=0.5;exitY=1;exitDx=0;exitDy=0;entryX=0.5;entryY=0;entryDx=0;entryDy=0;fontSize=14;verticalAlign=middle;fontStyle=0;horizontal=1;" parent="1" source="120" target="141" edge="1">
                    <mxGeometry relative="1" as="geometry"/>
                </mxCell>
                <mxCell id="120" value="aips1" style="rounded=0;whiteSpace=wrap;html=1;fontSize=14;align=center;verticalAlign=middle;fontStyle=0;horizontal=1;" parent="1" vertex="1">
                    <mxGeometry x="355" y="4910" width="50" height="40" as="geometry"/>
                </mxCell>
                <mxCell id="121" style="edgeStyle=none;html=1;exitX=0.5;exitY=1;exitDx=0;exitDy=0;entryX=0.5;entryY=0;entryDx=0;entryDy=0;fontSize=14;verticalAlign=middle;fontStyle=0;horizontal=1;" parent="1" source="124" target="131" edge="1">
                    <mxGeometry relative="1" as="geometry"/>
                </mxCell>
                <mxCell id="122" style="edgeStyle=none;html=1;entryX=0.5;entryY=0;entryDx=0;entryDy=0;fontSize=14;verticalAlign=middle;fontStyle=0;horizontal=1;" parent="1" target="132" edge="1">
                    <mxGeometry relative="1" as="geometry">
                        <mxPoint x="550" y="4950" as="sourcePoint"/>
                    </mxGeometry>
                </mxCell>
                <mxCell id="123" style="edgeStyle=none;html=1;exitX=0.5;exitY=1;exitDx=0;exitDy=0;entryX=0.5;entryY=0;entryDx=0;entryDy=0;fontSize=14;verticalAlign=middle;fontStyle=0;horizontal=1;" parent="1" source="124" target="137" edge="1">
                    <mxGeometry relative="1" as="geometry"/>
                </mxCell>
                <mxCell id="124" value="aips2" style="rounded=0;whiteSpace=wrap;html=1;fontSize=14;align=center;verticalAlign=middle;fontStyle=0;horizontal=1;" parent="1" vertex="1">
                    <mxGeometry x="520" y="4910" width="60" height="40" as="geometry"/>
                </mxCell>
                <mxCell id="125" style="edgeStyle=none;html=1;exitX=0.5;exitY=1;exitDx=0;exitDy=0;entryX=0.5;entryY=0;entryDx=0;entryDy=0;fontSize=14;verticalAlign=middle;fontStyle=0;horizontal=1;" parent="1" source="127" target="138" edge="1">
                    <mxGeometry relative="1" as="geometry"/>
                </mxCell>
                <mxCell id="126" style="edgeStyle=none;html=1;entryX=0.5;entryY=0;entryDx=0;entryDy=0;fontSize=14;verticalAlign=middle;fontStyle=0;horizontal=1;" parent="1" source="127" target="140" edge="1">
                    <mxGeometry relative="1" as="geometry"/>
                </mxCell>
                <mxCell id="127" value="aips3" style="rounded=0;whiteSpace=wrap;html=1;fontSize=14;align=center;verticalAlign=middle;fontStyle=0;horizontal=1;" parent="1" vertex="1">
                    <mxGeometry x="690" y="4910" width="60" height="40" as="geometry"/>
                </mxCell>
                <mxCell id="128" style="edgeStyle=none;html=1;exitX=0.5;exitY=1;exitDx=0;exitDy=0;entryX=0.5;entryY=0;entryDx=0;entryDy=0;fontSize=14;verticalAlign=middle;fontStyle=0;horizontal=1;" parent="1" source="129" target="142" edge="1">
                    <mxGeometry relative="1" as="geometry"/>
                </mxCell>
                <mxCell id="129" value="ecspi" style="rounded=0;whiteSpace=wrap;html=1;fontSize=14;align=center;verticalAlign=middle;fontStyle=0;horizontal=1;" parent="1" vertex="1">
                    <mxGeometry x="220" y="5010" width="40" height="40" as="geometry"/>
                </mxCell>
                <mxCell id="130" value="uart" style="rounded=0;whiteSpace=wrap;html=1;fontSize=14;align=center;verticalAlign=middle;fontStyle=0;horizontal=1;" parent="1" vertex="1">
                    <mxGeometry x="280" y="5010" width="40" height="40" as="geometry"/>
                </mxCell>
                <mxCell id="131" value="crypto" style="rounded=0;whiteSpace=wrap;html=1;fontSize=14;align=center;verticalAlign=middle;fontStyle=0;horizontal=1;" parent="1" vertex="1">
                    <mxGeometry x="460" y="5010" width="40" height="40" as="geometry"/>
                </mxCell>
                <mxCell id="132" value="fec1" style="rounded=0;whiteSpace=wrap;html=1;fontSize=14;align=center;verticalAlign=middle;fontStyle=0;horizontal=1;" parent="1" vertex="1">
                    <mxGeometry x="530" y="5010" width="40" height="40" as="geometry"/>
                </mxCell>
                <mxCell id="133" value="pwm" style="rounded=0;whiteSpace=wrap;html=1;fontSize=14;align=center;verticalAlign=middle;fontStyle=0;horizontal=1;" parent="1" vertex="1">
                    <mxGeometry x="340" y="5010" width="40" height="40" as="geometry"/>
                </mxCell>
                <mxCell id="134" value="can" style="rounded=0;whiteSpace=wrap;html=1;fontSize=14;align=center;verticalAlign=middle;fontStyle=0;horizontal=1;" parent="1" vertex="1">
                    <mxGeometry x="400" y="5010" width="40" height="40" as="geometry"/>
                </mxCell>
                <mxCell id="135" style="edgeStyle=none;html=1;entryX=0.5;entryY=0;entryDx=0;entryDy=0;fontSize=14;exitX=0.5;exitY=1;exitDx=0;exitDy=0;verticalAlign=middle;fontStyle=0;horizontal=1;" parent="1" source="137" target="144" edge="1">
                    <mxGeometry relative="1" as="geometry"/>
                </mxCell>
                <mxCell id="136" style="edgeStyle=none;html=1;entryX=0.5;entryY=0;entryDx=0;entryDy=0;fontSize=14;exitX=0.5;exitY=1;exitDx=0;exitDy=0;verticalAlign=middle;fontStyle=0;horizontal=1;" parent="1" source="137" target="145" edge="1">
                    <mxGeometry relative="1" as="geometry"/>
                </mxCell>
                <mxCell id="137" value="i2c" style="rounded=0;whiteSpace=wrap;html=1;fontSize=14;align=center;verticalAlign=middle;fontStyle=0;horizontal=1;" parent="1" vertex="1">
                    <mxGeometry x="590" y="5010" width="40" height="40" as="geometry"/>
                </mxCell>
                <mxCell id="138" value="rngb" style="rounded=0;whiteSpace=wrap;html=1;fontSize=14;align=center;verticalAlign=middle;fontStyle=0;horizontal=1;" parent="1" vertex="1">
                    <mxGeometry x="660" y="5010" width="40" height="40" as="geometry"/>
                </mxCell>
                <mxCell id="139" style="edgeStyle=none;html=1;entryX=0.5;entryY=0;entryDx=0;entryDy=0;fontSize=14;verticalAlign=middle;fontStyle=0;horizontal=1;" parent="1" source="140" target="143" edge="1">
                    <mxGeometry relative="1" as="geometry"/>
                </mxCell>
                <mxCell id="140" value="iomuxc_snvs" style="rounded=0;whiteSpace=wrap;html=1;fontSize=14;align=center;verticalAlign=middle;fontStyle=0;horizontal=1;" parent="1" vertex="1">
                    <mxGeometry x="720" y="5010" width="90" height="40" as="geometry"/>
                </mxCell>
                <mxCell id="141" value="iomuxc" style="rounded=0;whiteSpace=wrap;html=1;fontSize=14;align=center;verticalAlign=middle;fontStyle=0;horizontal=1;" parent="1" vertex="1">
                    <mxGeometry x="160" y="5010" width="50" height="40" as="geometry"/>
                </mxCell>
                <mxCell id="142" value="icm20608" style="rounded=0;whiteSpace=wrap;html=1;fontSize=14;align=center;verticalAlign=middle;fontStyle=0;horizontal=1;" parent="1" vertex="1">
                    <mxGeometry x="205" y="5110" width="70" height="40" as="geometry"/>
                </mxCell>
                <mxCell id="143" value="pinctrl" style="rounded=0;whiteSpace=wrap;html=1;fontSize=14;align=center;verticalAlign=middle;fontStyle=0;horizontal=1;" parent="1" vertex="1">
                    <mxGeometry x="730" y="5110" width="70" height="40" as="geometry"/>
                </mxCell>
                <mxCell id="144" value="ap3216" style="rounded=0;whiteSpace=wrap;html=1;fontSize=14;align=center;verticalAlign=middle;fontStyle=0;horizontal=1;" parent="1" vertex="1">
                    <mxGeometry x="530" y="5110" width="55" height="40" as="geometry"/>
                </mxCell>
                <mxCell id="145" value="gt7149" style="rounded=0;whiteSpace=wrap;html=1;fontSize=14;align=center;verticalAlign=middle;fontStyle=0;horizontal=1;" parent="1" vertex="1">
                    <mxGeometry x="630" y="5110" width="55" height="40" as="geometry"/>
                </mxCell>
                <mxCell id="146" style="edgeStyle=none;html=1;entryX=0;entryY=0.5;entryDx=0;entryDy=0;fontSize=18;" parent="1" source="147" target="149" edge="1">
                    <mxGeometry relative="1" as="geometry"/>
                </mxCell>
                <mxCell id="147" value="test.dts" style="rounded=0;whiteSpace=wrap;html=1;fontSize=18;" parent="1" vertex="1">
                    <mxGeometry x="45" y="5880" width="120" height="40" as="geometry"/>
                </mxCell>
                <mxCell id="148" style="edgeStyle=none;html=1;entryX=0;entryY=0.5;entryDx=0;entryDy=0;fontSize=18;exitX=1;exitY=0.5;exitDx=0;exitDy=0;" parent="1" source="149" target="155" edge="1">
                    <mxGeometry relative="1" as="geometry"/>
                </mxCell>
                <mxCell id="149" value="test.dtb&lt;br style=&quot;font-size: 18px;&quot;&gt;__symbols__" style="rounded=0;whiteSpace=wrap;html=1;fontSize=18;" parent="1" vertex="1">
                    <mxGeometry x="245" y="5880" width="120" height="40" as="geometry"/>
                </mxCell>
                <mxCell id="150" style="edgeStyle=none;html=1;fontSize=18;" parent="1" source="151" target="153" edge="1">
                    <mxGeometry relative="1" as="geometry"/>
                </mxCell>
                <mxCell id="151" value="overlay.dts" style="rounded=0;whiteSpace=wrap;html=1;fontSize=18;" parent="1" vertex="1">
                    <mxGeometry x="45" y="5960" width="120" height="40" as="geometry"/>
                </mxCell>
                <mxCell id="152" style="edgeStyle=none;html=1;entryX=0;entryY=0.5;entryDx=0;entryDy=0;fontSize=18;" parent="1" source="153" target="155" edge="1">
                    <mxGeometry relative="1" as="geometry"/>
                </mxCell>
                <mxCell id="153" value="overlay.dtbo" style="rounded=0;whiteSpace=wrap;html=1;fontSize=18;" parent="1" vertex="1">
                    <mxGeometry x="245" y="5960" width="120" height="40" as="geometry"/>
                </mxCell>
                <mxCell id="154" style="edgeStyle=none;html=1;fontSize=18;entryX=0;entryY=0.5;entryDx=0;entryDy=0;exitX=0.5;exitY=1;exitDx=0;exitDy=0;" parent="1" source="155" target="158" edge="1">
                    <mxGeometry relative="1" as="geometry"/>
                </mxCell>
                <mxCell id="155" value="device.dtb" style="rounded=0;whiteSpace=wrap;html=1;fontSize=18;" parent="1" vertex="1">
                    <mxGeometry x="445" y="5920" width="120" height="40" as="geometry"/>
                </mxCell>
                <mxCell id="156" style="edgeStyle=none;html=1;entryX=0;entryY=0.5;entryDx=0;entryDy=0;fontSize=18;exitX=0.5;exitY=0;exitDx=0;exitDy=0;" parent="1" source="157" target="158" edge="1">
                    <mxGeometry relative="1" as="geometry"/>
                </mxCell>
                <mxCell id="157" value="zImage" style="rounded=0;whiteSpace=wrap;html=1;fontSize=18;" parent="1" vertex="1">
                    <mxGeometry x="445" y="6080" width="120" height="40" as="geometry"/>
                </mxCell>
                <mxCell id="158" value="boot kernel" style="rounded=0;whiteSpace=wrap;html=1;fontSize=18;" parent="1" vertex="1">
                    <mxGeometry x="645" y="6000" width="120" height="40" as="geometry"/>
                </mxCell>
                <mxCell id="159" value="load" style="text;html=1;strokeColor=none;fillColor=none;align=center;verticalAlign=middle;whiteSpace=wrap;rounded=0;fontSize=18;" parent="1" vertex="1">
                    <mxGeometry x="375" y="5880" width="60" height="30" as="geometry"/>
                </mxCell>
                <mxCell id="160" value="fdt apply" style="text;html=1;strokeColor=none;fillColor=none;align=center;verticalAlign=middle;whiteSpace=wrap;rounded=0;fontSize=18;" parent="1" vertex="1">
                    <mxGeometry x="375" y="5960" width="60" height="40" as="geometry"/>
                </mxCell>
                <mxCell id="161" value="" style="endArrow=none;dashed=1;html=1;dashPattern=1 3;strokeWidth=2;fontSize=18;" parent="1" edge="1">
                    <mxGeometry width="50" height="50" relative="1" as="geometry">
                        <mxPoint x="375" y="6130" as="sourcePoint"/>
                        <mxPoint x="375" y="5810" as="targetPoint"/>
                    </mxGeometry>
                </mxCell>
                <mxCell id="162" value="" style="endArrow=none;dashed=1;html=1;dashPattern=1 3;strokeWidth=2;fontSize=18;" parent="1" edge="1">
                    <mxGeometry width="50" height="50" relative="1" as="geometry">
                        <mxPoint x="615" y="6130" as="sourcePoint"/>
                        <mxPoint x="615" y="5810" as="targetPoint"/>
                    </mxGeometry>
                </mxCell>
                <mxCell id="163" value="compiler" style="text;html=1;strokeColor=none;fillColor=none;align=center;verticalAlign=middle;whiteSpace=wrap;rounded=0;fontSize=18;" parent="1" vertex="1">
                    <mxGeometry x="155" y="5830" width="60" height="30" as="geometry"/>
                </mxCell>
                <mxCell id="164" value="u-boot" style="text;html=1;strokeColor=none;fillColor=none;align=center;verticalAlign=middle;whiteSpace=wrap;rounded=0;fontSize=18;" parent="1" vertex="1">
                    <mxGeometry x="465" y="5830" width="60" height="30" as="geometry"/>
                </mxCell>
                <mxCell id="165" value="kernel" style="text;html=1;strokeColor=none;fillColor=none;align=center;verticalAlign=middle;whiteSpace=wrap;rounded=0;fontSize=18;" parent="1" vertex="1">
                    <mxGeometry x="675" y="5830" width="60" height="30" as="geometry"/>
                </mxCell>
                <mxCell id="166" value="设备树框架" style="text;html=1;align=center;verticalAlign=middle;whiteSpace=wrap;rounded=0;fontSize=17;" parent="1" vertex="1">
                    <mxGeometry x="41.5" y="4450" width="99" height="30" as="geometry"/>
                </mxCell>
            </root>
        </mxGraphModel>
    </diagram>
    <diagram id="741NFU_lOByMR3ub974F" name="04.gpio">
        <mxGraphModel dx="917" dy="-3954" grid="1" gridSize="10" guides="1" tooltips="1" connect="1" arrows="1" fold="1" page="1" pageScale="1" pageWidth="850" pageHeight="1100" math="0" shadow="0">
            <root>
                <mxCell id="0"/>
                <mxCell id="1" parent="0"/>
                <mxCell id="TUpCZ8GaIIPvFyI9XZyK-1" value="" style="rounded=0;whiteSpace=wrap;html=1;fontSize=16;" parent="1" vertex="1">
                    <mxGeometry x="42.5" y="4648" width="780" height="620" as="geometry"/>
                </mxCell>
                <mxCell id="TUpCZ8GaIIPvFyI9XZyK-2" value="" style="endArrow=none;dashed=1;html=1;" parent="1" edge="1">
                    <mxGeometry width="50" height="50" relative="1" as="geometry">
                        <mxPoint x="52.5" y="4868" as="sourcePoint"/>
                        <mxPoint x="812.5" y="4868" as="targetPoint"/>
                    </mxGeometry>
                </mxCell>
                <mxCell id="TUpCZ8GaIIPvFyI9XZyK-3" value="open/read/write/close" style="rounded=0;whiteSpace=wrap;html=1;" parent="1" vertex="1">
                    <mxGeometry x="132.5" y="4668" width="120" height="40" as="geometry"/>
                </mxCell>
                <mxCell id="TUpCZ8GaIIPvFyI9XZyK-4" value="/dev/ledX" style="rounded=0;whiteSpace=wrap;html=1;" parent="1" vertex="1">
                    <mxGeometry x="132.5" y="4788" width="120" height="40" as="geometry"/>
                </mxCell>
                <mxCell id="TUpCZ8GaIIPvFyI9XZyK-5" value="character" style="rounded=0;whiteSpace=wrap;html=1;" parent="1" vertex="1">
                    <mxGeometry x="132.5" y="4908" width="120" height="40" as="geometry"/>
                </mxCell>
                <mxCell id="TUpCZ8GaIIPvFyI9XZyK-6" style="edgeStyle=none;html=1;entryX=0.5;entryY=0;entryDx=0;entryDy=0;strokeWidth=1;startArrow=none;startFill=0;endArrow=classic;endFill=1;startSize=4;endSize=4;exitX=0.5;exitY=1;exitDx=0;exitDy=0;" parent="1" source="TUpCZ8GaIIPvFyI9XZyK-7" target="TUpCZ8GaIIPvFyI9XZyK-29" edge="1">
                    <mxGeometry relative="1" as="geometry"/>
                </mxCell>
                <mxCell id="TUpCZ8GaIIPvFyI9XZyK-7" value="driver" style="rounded=0;whiteSpace=wrap;html=1;" parent="1" vertex="1">
                    <mxGeometry x="212.5" y="5028" width="120" height="40" as="geometry"/>
                </mxCell>
                <mxCell id="TUpCZ8GaIIPvFyI9XZyK-8" style="edgeStyle=none;html=1;strokeWidth=1;startArrow=none;startFill=0;endArrow=classic;endFill=1;startSize=4;endSize=4;" parent="1" source="TUpCZ8GaIIPvFyI9XZyK-9" target="TUpCZ8GaIIPvFyI9XZyK-32" edge="1">
                    <mxGeometry relative="1" as="geometry"/>
                </mxCell>
                <mxCell id="TUpCZ8GaIIPvFyI9XZyK-9" value="deivce" style="rounded=0;whiteSpace=wrap;html=1;" parent="1" vertex="1">
                    <mxGeometry x="632.5" y="5028" width="120" height="40" as="geometry"/>
                </mxCell>
                <mxCell id="TUpCZ8GaIIPvFyI9XZyK-10" value="class" style="rounded=0;whiteSpace=wrap;html=1;" parent="1" vertex="1">
                    <mxGeometry x="292.5" y="4908" width="120" height="40" as="geometry"/>
                </mxCell>
                <mxCell id="TUpCZ8GaIIPvFyI9XZyK-11" value="platform&amp;nbsp; bus" style="text;html=1;strokeColor=none;fillColor=none;align=center;verticalAlign=middle;whiteSpace=wrap;rounded=0;fontSize=16;horizontal=1;" parent="1" vertex="1">
                    <mxGeometry x="472.5" y="4908" width="80" height="40" as="geometry"/>
                </mxCell>
                <mxCell id="TUpCZ8GaIIPvFyI9XZyK-12" value="device tree" style="rounded=0;whiteSpace=wrap;html=1;" parent="1" vertex="1">
                    <mxGeometry x="632.5" y="4908" width="120" height="40" as="geometry"/>
                </mxCell>
                <mxCell id="TUpCZ8GaIIPvFyI9XZyK-13" value="/proc/deivce-tree/[node]" style="rounded=0;whiteSpace=wrap;html=1;" parent="1" vertex="1">
                    <mxGeometry x="622.5" y="4788" width="140" height="40" as="geometry"/>
                </mxCell>
                <mxCell id="TUpCZ8GaIIPvFyI9XZyK-14" value="/sys/class/gpio/*" style="rounded=0;whiteSpace=wrap;html=1;" parent="1" vertex="1">
                    <mxGeometry x="292.5" y="4788" width="120" height="40" as="geometry"/>
                </mxCell>
                <mxCell id="TUpCZ8GaIIPvFyI9XZyK-15" value="/sys/bus/platform/devices/ledX&lt;br&gt;/sys/device/platform/ledX" style="rounded=0;whiteSpace=wrap;html=1;" parent="1" vertex="1">
                    <mxGeometry x="422.5" y="4788" width="180" height="40" as="geometry"/>
                </mxCell>
                <mxCell id="TUpCZ8GaIIPvFyI9XZyK-16" value="" style="shape=flexArrow;endArrow=classic;startArrow=classic;html=1;endSize=4;startSize=4;strokeWidth=1;width=6;" parent="1" source="TUpCZ8GaIIPvFyI9XZyK-4" edge="1">
                    <mxGeometry width="100" height="100" relative="1" as="geometry">
                        <mxPoint x="92.5" y="4808" as="sourcePoint"/>
                        <mxPoint x="192.5" y="4708" as="targetPoint"/>
                    </mxGeometry>
                </mxCell>
                <mxCell id="TUpCZ8GaIIPvFyI9XZyK-17" value="" style="shape=flexArrow;endArrow=classic;startArrow=classic;html=1;endSize=4;startSize=4;strokeWidth=1;width=6;" parent="1" edge="1">
                    <mxGeometry width="100" height="100" relative="1" as="geometry">
                        <mxPoint x="192" y="4908" as="sourcePoint"/>
                        <mxPoint x="192" y="4828" as="targetPoint"/>
                    </mxGeometry>
                </mxCell>
                <mxCell id="TUpCZ8GaIIPvFyI9XZyK-18" value="" style="shape=flexArrow;endArrow=classic;startArrow=classic;html=1;endSize=4;startSize=4;strokeWidth=1;width=6;" parent="1" edge="1">
                    <mxGeometry width="100" height="100" relative="1" as="geometry">
                        <mxPoint x="352" y="4908" as="sourcePoint"/>
                        <mxPoint x="352" y="4828" as="targetPoint"/>
                    </mxGeometry>
                </mxCell>
                <mxCell id="TUpCZ8GaIIPvFyI9XZyK-19" value="" style="shape=flexArrow;endArrow=classic;startArrow=classic;html=1;endSize=4;startSize=4;strokeWidth=1;width=6;" parent="1" edge="1">
                    <mxGeometry width="100" height="100" relative="1" as="geometry">
                        <mxPoint x="512" y="4908" as="sourcePoint"/>
                        <mxPoint x="512" y="4828" as="targetPoint"/>
                    </mxGeometry>
                </mxCell>
                <mxCell id="TUpCZ8GaIIPvFyI9XZyK-20" value="" style="shape=flexArrow;endArrow=classic;startArrow=classic;html=1;endSize=4;startSize=4;strokeWidth=1;width=6;" parent="1" edge="1">
                    <mxGeometry width="100" height="100" relative="1" as="geometry">
                        <mxPoint x="692" y="4908" as="sourcePoint"/>
                        <mxPoint x="692" y="4828" as="targetPoint"/>
                    </mxGeometry>
                </mxCell>
                <mxCell id="TUpCZ8GaIIPvFyI9XZyK-21" value="" style="endArrow=classic;html=1;strokeWidth=1;startSize=4;endSize=4;exitX=0.5;exitY=1;exitDx=0;exitDy=0;" parent="1" source="TUpCZ8GaIIPvFyI9XZyK-12" target="TUpCZ8GaIIPvFyI9XZyK-9" edge="1">
                    <mxGeometry width="50" height="50" relative="1" as="geometry">
                        <mxPoint x="462.5" y="4978" as="sourcePoint"/>
                        <mxPoint x="702.5" y="4968" as="targetPoint"/>
                    </mxGeometry>
                </mxCell>
                <mxCell id="TUpCZ8GaIIPvFyI9XZyK-22" value="" style="endArrow=none;dashed=1;html=1;" parent="1" edge="1">
                    <mxGeometry width="50" height="50" relative="1" as="geometry">
                        <mxPoint x="52.5" y="5178" as="sourcePoint"/>
                        <mxPoint x="812.5" y="5178" as="targetPoint"/>
                    </mxGeometry>
                </mxCell>
                <mxCell id="TUpCZ8GaIIPvFyI9XZyK-23" value="应用层" style="text;html=1;strokeColor=none;fillColor=none;align=center;verticalAlign=middle;whiteSpace=wrap;rounded=0;fontSize=14;" parent="1" vertex="1">
                    <mxGeometry x="52.5" y="4768" width="60" height="30" as="geometry"/>
                </mxCell>
                <mxCell id="TUpCZ8GaIIPvFyI9XZyK-24" value="内核层" style="text;html=1;strokeColor=none;fillColor=none;align=center;verticalAlign=middle;whiteSpace=wrap;rounded=0;fontSize=14;" parent="1" vertex="1">
                    <mxGeometry x="52.5" y="4978" width="60" height="30" as="geometry"/>
                </mxCell>
                <mxCell id="TUpCZ8GaIIPvFyI9XZyK-25" value="GPIO字符驱动框架" style="text;html=1;strokeColor=none;fillColor=none;align=center;verticalAlign=middle;whiteSpace=wrap;rounded=0;fontSize=14;" parent="1" vertex="1">
                    <mxGeometry x="512.5" y="4668" width="160" height="60" as="geometry"/>
                </mxCell>
                <mxCell id="TUpCZ8GaIIPvFyI9XZyK-26" value="" style="endArrow=classic;html=1;strokeWidth=1;startSize=4;endSize=4;entryX=0.5;entryY=1;entryDx=0;entryDy=0;exitX=0.5;exitY=0;exitDx=0;exitDy=0;" parent="1" source="TUpCZ8GaIIPvFyI9XZyK-7" target="TUpCZ8GaIIPvFyI9XZyK-5" edge="1">
                    <mxGeometry width="50" height="50" relative="1" as="geometry">
                        <mxPoint x="342.5" y="5018" as="sourcePoint"/>
                        <mxPoint x="392.5" y="4968" as="targetPoint"/>
                    </mxGeometry>
                </mxCell>
                <mxCell id="TUpCZ8GaIIPvFyI9XZyK-27" value="" style="endArrow=classic;html=1;strokeWidth=1;startSize=4;endSize=4;entryX=0.5;entryY=1;entryDx=0;entryDy=0;" parent="1" target="TUpCZ8GaIIPvFyI9XZyK-10" edge="1">
                    <mxGeometry width="50" height="50" relative="1" as="geometry">
                        <mxPoint x="272.5" y="5028" as="sourcePoint"/>
                        <mxPoint x="322.5" y="4978" as="targetPoint"/>
                    </mxGeometry>
                </mxCell>
                <mxCell id="TUpCZ8GaIIPvFyI9XZyK-28" style="edgeStyle=none;html=1;entryX=0.5;entryY=0;entryDx=0;entryDy=0;strokeWidth=1;startArrow=none;startFill=0;endArrow=classic;endFill=1;startSize=4;endSize=4;" parent="1" source="TUpCZ8GaIIPvFyI9XZyK-29" target="TUpCZ8GaIIPvFyI9XZyK-30" edge="1">
                    <mxGeometry relative="1" as="geometry"/>
                </mxCell>
                <mxCell id="TUpCZ8GaIIPvFyI9XZyK-29" value="gpiod" style="rounded=0;whiteSpace=wrap;html=1;" parent="1" vertex="1">
                    <mxGeometry x="212.5" y="5108" width="120" height="40" as="geometry"/>
                </mxCell>
                <mxCell id="TUpCZ8GaIIPvFyI9XZyK-30" value="hardware(led, beep...）" style="rounded=0;whiteSpace=wrap;html=1;" parent="1" vertex="1">
                    <mxGeometry x="402.5" y="5213" width="120" height="40" as="geometry"/>
                </mxCell>
                <mxCell id="TUpCZ8GaIIPvFyI9XZyK-31" value="物理层" style="text;html=1;strokeColor=none;fillColor=none;align=center;verticalAlign=middle;whiteSpace=wrap;rounded=0;fontSize=14;" parent="1" vertex="1">
                    <mxGeometry x="52.5" y="5218" width="60" height="30" as="geometry"/>
                </mxCell>
                <mxCell id="TUpCZ8GaIIPvFyI9XZyK-32" value="pinctrl" style="rounded=0;whiteSpace=wrap;html=1;" parent="1" vertex="1">
                    <mxGeometry x="632.5" y="5108" width="120" height="40" as="geometry"/>
                </mxCell>
                <mxCell id="TUpCZ8GaIIPvFyI9XZyK-33" value="" style="endArrow=classic;html=1;strokeWidth=1;startSize=4;endSize=4;exitX=0.5;exitY=1;exitDx=0;exitDy=0;entryX=0.5;entryY=0;entryDx=0;entryDy=0;" parent="1" source="TUpCZ8GaIIPvFyI9XZyK-32" target="TUpCZ8GaIIPvFyI9XZyK-30" edge="1">
                    <mxGeometry width="50" height="50" relative="1" as="geometry">
                        <mxPoint x="682.5" y="5253" as="sourcePoint"/>
                        <mxPoint x="732.5" y="5203" as="targetPoint"/>
                    </mxGeometry>
                </mxCell>
                <mxCell id="TUpCZ8GaIIPvFyI9XZyK-34" value="" style="shape=flexArrow;endArrow=none;startArrow=block;html=1;strokeWidth=1;fontSize=13;startSize=4;endSize=4;width=12;startFill=0;endFill=0;" parent="1" edge="1">
                    <mxGeometry width="100" height="100" relative="1" as="geometry">
                        <mxPoint x="512.5" y="5148" as="sourcePoint"/>
                        <mxPoint x="512.5" y="4948" as="targetPoint"/>
                    </mxGeometry>
                </mxCell>
                <mxCell id="TUpCZ8GaIIPvFyI9XZyK-35" value="" style="shape=flexArrow;endArrow=classic;startArrow=classic;html=1;strokeWidth=1;fontSize=13;startSize=4;endSize=4;width=7;" parent="1" edge="1">
                    <mxGeometry width="100" height="100" relative="1" as="geometry">
                        <mxPoint x="332.5" y="5048" as="sourcePoint"/>
                        <mxPoint x="502.5" y="5028" as="targetPoint"/>
                    </mxGeometry>
                </mxCell>
                <mxCell id="TUpCZ8GaIIPvFyI9XZyK-36" value="" style="shape=flexArrow;endArrow=classic;startArrow=classic;html=1;strokeWidth=1;fontSize=13;startSize=4;endSize=4;entryX=0;entryY=0.5;entryDx=0;entryDy=0;width=7;" parent="1" target="TUpCZ8GaIIPvFyI9XZyK-9" edge="1">
                    <mxGeometry width="100" height="100" relative="1" as="geometry">
                        <mxPoint x="522.5" y="5028" as="sourcePoint"/>
                        <mxPoint x="622.5" y="5008" as="targetPoint"/>
                    </mxGeometry>
                </mxCell>
                <mxCell id="TUpCZ8GaIIPvFyI9XZyK-37" value="GPIO驱动框架" style="text;html=1;align=center;verticalAlign=middle;whiteSpace=wrap;rounded=0;fontSize=20;" parent="1" vertex="1">
                    <mxGeometry x="31" y="4474" width="170.5" height="82" as="geometry"/>
                </mxCell>
            </root>
        </mxGraphModel>
    </diagram>
    <diagram id="-EHDi5oS2cwSGouGw1EI" name="05.input">
        <mxGraphModel dx="917" dy="-12754" grid="1" gridSize="10" guides="1" tooltips="1" connect="1" arrows="1" fold="1" page="1" pageScale="1" pageWidth="850" pageHeight="1100" math="0" shadow="0">
            <root>
                <mxCell id="0"/>
                <mxCell id="1" parent="0"/>
                <mxCell id="i5q-g1KALTNWNUY4G1AL-1" value="" style="rounded=0;whiteSpace=wrap;html=1;dashed=1;" parent="1" vertex="1">
                    <mxGeometry x="101" y="13568" width="618" height="271" as="geometry"/>
                </mxCell>
                <mxCell id="i5q-g1KALTNWNUY4G1AL-2" value="按键" style="rounded=0;whiteSpace=wrap;html=1;" parent="1" vertex="1">
                    <mxGeometry x="128" y="13651" width="120" height="30" as="geometry"/>
                </mxCell>
                <mxCell id="i5q-g1KALTNWNUY4G1AL-3" value="硬件输入设备" style="text;html=1;strokeColor=none;fillColor=none;align=center;verticalAlign=middle;whiteSpace=wrap;rounded=0;" parent="1" vertex="1">
                    <mxGeometry x="148" y="13611" width="80" height="30" as="geometry"/>
                </mxCell>
                <mxCell id="i5q-g1KALTNWNUY4G1AL-4" style="edgeStyle=none;html=1;entryX=0;entryY=0.5;entryDx=0;entryDy=0;" parent="1" source="i5q-g1KALTNWNUY4G1AL-5" target="i5q-g1KALTNWNUY4G1AL-11" edge="1">
                    <mxGeometry relative="1" as="geometry"/>
                </mxCell>
                <mxCell id="i5q-g1KALTNWNUY4G1AL-5" value="键盘/鼠标" style="rounded=0;whiteSpace=wrap;html=1;" parent="1" vertex="1">
                    <mxGeometry x="128" y="13701" width="120" height="30" as="geometry"/>
                </mxCell>
                <mxCell id="i5q-g1KALTNWNUY4G1AL-6" style="edgeStyle=none;html=1;" parent="1" source="i5q-g1KALTNWNUY4G1AL-7" target="i5q-g1KALTNWNUY4G1AL-13" edge="1">
                    <mxGeometry relative="1" as="geometry"/>
                </mxCell>
                <mxCell id="i5q-g1KALTNWNUY4G1AL-7" value="触摸屏" style="rounded=0;whiteSpace=wrap;html=1;" parent="1" vertex="1">
                    <mxGeometry x="128" y="13751" width="120" height="30" as="geometry"/>
                </mxCell>
                <mxCell id="i5q-g1KALTNWNUY4G1AL-8" style="edgeStyle=none;html=1;exitX=1;exitY=0.5;exitDx=0;exitDy=0;entryX=0.004;entryY=0.584;entryDx=0;entryDy=0;entryPerimeter=0;" parent="1" source="i5q-g1KALTNWNUY4G1AL-9" target="i5q-g1KALTNWNUY4G1AL-15" edge="1">
                    <mxGeometry relative="1" as="geometry"/>
                </mxCell>
                <mxCell id="i5q-g1KALTNWNUY4G1AL-9" value="GPIO" style="rounded=0;whiteSpace=wrap;html=1;" parent="1" vertex="1">
                    <mxGeometry x="288" y="13651" width="120" height="30" as="geometry"/>
                </mxCell>
                <mxCell id="i5q-g1KALTNWNUY4G1AL-10" style="edgeStyle=none;html=1;" parent="1" source="i5q-g1KALTNWNUY4G1AL-11" edge="1">
                    <mxGeometry relative="1" as="geometry">
                        <mxPoint x="438" y="13716" as="targetPoint"/>
                    </mxGeometry>
                </mxCell>
                <mxCell id="i5q-g1KALTNWNUY4G1AL-11" value="USB" style="rounded=0;whiteSpace=wrap;html=1;" parent="1" vertex="1">
                    <mxGeometry x="288" y="13701" width="120" height="30" as="geometry"/>
                </mxCell>
                <mxCell id="i5q-g1KALTNWNUY4G1AL-12" style="edgeStyle=none;html=1;entryX=0;entryY=0.5;entryDx=0;entryDy=0;exitX=1;exitY=0.5;exitDx=0;exitDy=0;" parent="1" source="i5q-g1KALTNWNUY4G1AL-13" target="i5q-g1KALTNWNUY4G1AL-15" edge="1">
                    <mxGeometry relative="1" as="geometry"/>
                </mxCell>
                <mxCell id="i5q-g1KALTNWNUY4G1AL-13" value="I2C" style="rounded=0;whiteSpace=wrap;html=1;" parent="1" vertex="1">
                    <mxGeometry x="288" y="13751" width="120" height="30" as="geometry"/>
                </mxCell>
                <mxCell id="i5q-g1KALTNWNUY4G1AL-14" style="edgeStyle=none;html=1;exitX=1;exitY=0.5;exitDx=0;exitDy=0;entryX=0;entryY=0.5;entryDx=0;entryDy=0;" parent="1" source="i5q-g1KALTNWNUY4G1AL-15" target="i5q-g1KALTNWNUY4G1AL-19" edge="1">
                    <mxGeometry relative="1" as="geometry"/>
                </mxCell>
                <mxCell id="i5q-g1KALTNWNUY4G1AL-15" value="设备驱动" style="rounded=0;whiteSpace=wrap;html=1;" parent="1" vertex="1">
                    <mxGeometry x="438" y="13701" width="120" height="30" as="geometry"/>
                </mxCell>
                <mxCell id="i5q-g1KALTNWNUY4G1AL-16" value="" style="endArrow=none;dashed=1;html=1;dashPattern=1 3;strokeWidth=2;entryX=0.269;entryY=0.007;entryDx=0;entryDy=0;entryPerimeter=0;" parent="1" target="i5q-g1KALTNWNUY4G1AL-1" edge="1">
                    <mxGeometry width="50" height="50" relative="1" as="geometry">
                        <mxPoint x="267" y="13837" as="sourcePoint"/>
                        <mxPoint x="268" y="13611" as="targetPoint"/>
                    </mxGeometry>
                </mxCell>
                <mxCell id="i5q-g1KALTNWNUY4G1AL-17" value="内核空间" style="text;html=1;strokeColor=none;fillColor=none;align=center;verticalAlign=middle;whiteSpace=wrap;rounded=0;" parent="1" vertex="1">
                    <mxGeometry x="368" y="13611" width="80" height="30" as="geometry"/>
                </mxCell>
                <mxCell id="i5q-g1KALTNWNUY4G1AL-18" style="edgeStyle=none;html=1;" parent="1" source="i5q-g1KALTNWNUY4G1AL-19" target="i5q-g1KALTNWNUY4G1AL-20" edge="1">
                    <mxGeometry relative="1" as="geometry"/>
                </mxCell>
                <mxCell id="i5q-g1KALTNWNUY4G1AL-19" value="input/eventX设备" style="rounded=0;whiteSpace=wrap;html=1;" parent="1" vertex="1">
                    <mxGeometry x="598" y="13701" width="100" height="30" as="geometry"/>
                </mxCell>
                <mxCell id="i5q-g1KALTNWNUY4G1AL-20" value="应用访问" style="rounded=0;whiteSpace=wrap;html=1;" parent="1" vertex="1">
                    <mxGeometry x="598" y="13651" width="100" height="30" as="geometry"/>
                </mxCell>
                <mxCell id="i5q-g1KALTNWNUY4G1AL-21" value="" style="endArrow=none;dashed=1;html=1;dashPattern=1 3;strokeWidth=2;exitX=0.772;exitY=0.997;exitDx=0;exitDy=0;exitPerimeter=0;" parent="1" source="i5q-g1KALTNWNUY4G1AL-1" edge="1">
                    <mxGeometry width="50" height="50" relative="1" as="geometry">
                        <mxPoint x="578" y="13821" as="sourcePoint"/>
                        <mxPoint x="578" y="13571" as="targetPoint"/>
                    </mxGeometry>
                </mxCell>
                <mxCell id="i5q-g1KALTNWNUY4G1AL-22" value="" style="endArrow=classic;html=1;exitX=1;exitY=0.5;exitDx=0;exitDy=0;entryX=0;entryY=0.5;entryDx=0;entryDy=0;" parent="1" source="i5q-g1KALTNWNUY4G1AL-2" target="i5q-g1KALTNWNUY4G1AL-9" edge="1">
                    <mxGeometry width="50" height="50" relative="1" as="geometry">
                        <mxPoint x="438" y="13911" as="sourcePoint"/>
                        <mxPoint x="488" y="13861" as="targetPoint"/>
                    </mxGeometry>
                </mxCell>
                <mxCell id="i5q-g1KALTNWNUY4G1AL-23" value="用户空间" style="text;html=1;strokeColor=none;fillColor=none;align=center;verticalAlign=middle;whiteSpace=wrap;rounded=0;" parent="1" vertex="1">
                    <mxGeometry x="608" y="13607" width="80" height="30" as="geometry"/>
                </mxCell>
                <mxCell id="i5q-g1KALTNWNUY4G1AL-24" value="Input子系统框架" style="text;html=1;strokeColor=none;fillColor=none;align=center;verticalAlign=middle;whiteSpace=wrap;rounded=0;" parent="1" vertex="1">
                    <mxGeometry x="108" y="13577" width="110" height="30" as="geometry"/>
                </mxCell>
                <mxCell id="i5q-g1KALTNWNUY4G1AL-25" value="input驱动框架" style="text;html=1;align=center;verticalAlign=middle;whiteSpace=wrap;rounded=0;fontSize=20;" parent="1" vertex="1">
                    <mxGeometry x="31" y="13262" width="170.5" height="82" as="geometry"/>
                </mxCell>
            </root>
        </mxGraphModel>
    </diagram>
    <diagram id="e8nqeEjZPLydUAwhc5Cb" name="07.i2c">
        <mxGraphModel dx="917" dy="-5054" grid="1" gridSize="10" guides="1" tooltips="1" connect="1" arrows="1" fold="1" page="1" pageScale="1" pageWidth="850" pageHeight="1100" math="0" shadow="0">
            <root>
                <mxCell id="0"/>
                <mxCell id="1" parent="0"/>
                <mxCell id="pyBZLqyqYAhqXGvSIkKt-1" value="" style="rounded=0;whiteSpace=wrap;html=1;fillColor=#dae8fc;strokeColor=#6c8ebf;" parent="1" vertex="1">
                    <mxGeometry x="159" y="6052" width="408" height="269" as="geometry"/>
                </mxCell>
                <mxCell id="pyBZLqyqYAhqXGvSIkKt-2" value="&lt;br&gt;&lt;br&gt;&lt;span style=&quot;background-color: initial;&quot;&gt;&lt;br&gt;&lt;div style=&quot;&quot;&gt;&lt;span style=&quot;background-color: initial;&quot;&gt;ap3216&lt;/span&gt;&lt;/div&gt;&lt;/span&gt;" style="rounded=0;whiteSpace=wrap;html=1;align=left;verticalAlign=bottom;" parent="1" vertex="1">
                    <mxGeometry x="179" y="6216" width="107" height="72" as="geometry"/>
                </mxCell>
                <mxCell id="pyBZLqyqYAhqXGvSIkKt-3" value="" style="rounded=0;whiteSpace=wrap;html=1;fillColor=#dae8fc;strokeColor=#6c8ebf;" parent="1" vertex="1">
                    <mxGeometry x="159" y="5725" width="406" height="272" as="geometry"/>
                </mxCell>
                <mxCell id="pyBZLqyqYAhqXGvSIkKt-4" value="I2C Module" style="rounded=0;whiteSpace=wrap;html=1;" parent="1" vertex="1">
                    <mxGeometry x="245" y="5737" width="80" height="30" as="geometry"/>
                </mxCell>
                <mxCell id="pyBZLqyqYAhqXGvSIkKt-5" value="AP3216" style="rounded=0;whiteSpace=wrap;html=1;" parent="1" vertex="1">
                    <mxGeometry x="212" y="5943" width="60" height="30" as="geometry"/>
                </mxCell>
                <mxCell id="pyBZLqyqYAhqXGvSIkKt-6" value="..." style="rounded=0;whiteSpace=wrap;html=1;" parent="1" vertex="1">
                    <mxGeometry x="321.5" y="5943" width="60" height="30" as="geometry"/>
                </mxCell>
                <mxCell id="pyBZLqyqYAhqXGvSIkKt-7" value="PCF8563" style="rounded=0;whiteSpace=wrap;html=1;" parent="1" vertex="1">
                    <mxGeometry x="428" y="5943" width="60" height="30" as="geometry"/>
                </mxCell>
                <mxCell id="pyBZLqyqYAhqXGvSIkKt-8" value="" style="shape=flexArrow;endArrow=classic;html=1;" parent="1" edge="1">
                    <mxGeometry width="50" height="50" relative="1" as="geometry">
                        <mxPoint x="545" y="5847" as="sourcePoint"/>
                        <mxPoint x="180" y="5847" as="targetPoint"/>
                    </mxGeometry>
                </mxCell>
                <mxCell id="pyBZLqyqYAhqXGvSIkKt-9" value="" style="shape=flexArrow;endArrow=classic;startArrow=classic;html=1;fillColor=#fff2cc;strokeColor=#d6b656;" parent="1" edge="1">
                    <mxGeometry width="100" height="100" relative="1" as="geometry">
                        <mxPoint x="285" y="5837" as="sourcePoint"/>
                        <mxPoint x="284.65999999999985" y="5767" as="targetPoint"/>
                    </mxGeometry>
                </mxCell>
                <mxCell id="pyBZLqyqYAhqXGvSIkKt-10" value="" style="shape=flexArrow;endArrow=classic;startArrow=classic;html=1;exitX=0.5;exitY=0;exitDx=0;exitDy=0;fillColor=#fff2cc;strokeColor=#d6b656;" parent="1" edge="1">
                    <mxGeometry width="100" height="100" relative="1" as="geometry">
                        <mxPoint x="242.99999999999986" y="5943" as="sourcePoint"/>
                        <mxPoint x="242.99999999999986" y="5853" as="targetPoint"/>
                    </mxGeometry>
                </mxCell>
                <mxCell id="pyBZLqyqYAhqXGvSIkKt-11" value="" style="shape=flexArrow;endArrow=classic;startArrow=classic;html=1;exitX=0.5;exitY=0;exitDx=0;exitDy=0;fillColor=#fff2cc;strokeColor=#d6b656;" parent="1" edge="1">
                    <mxGeometry width="100" height="100" relative="1" as="geometry">
                        <mxPoint x="458.99999999999983" y="5943" as="sourcePoint"/>
                        <mxPoint x="458.99999999999983" y="5853" as="targetPoint"/>
                    </mxGeometry>
                </mxCell>
                <mxCell id="pyBZLqyqYAhqXGvSIkKt-12" value="" style="shape=flexArrow;endArrow=classic;startArrow=classic;html=1;exitX=0.5;exitY=0;exitDx=0;exitDy=0;fillColor=#fff2cc;strokeColor=#d6b656;" parent="1" edge="1">
                    <mxGeometry width="100" height="100" relative="1" as="geometry">
                        <mxPoint x="351.07999999999987" y="5943" as="sourcePoint"/>
                        <mxPoint x="351.07999999999987" y="5853" as="targetPoint"/>
                    </mxGeometry>
                </mxCell>
                <mxCell id="pyBZLqyqYAhqXGvSIkKt-13" value="I2C Adapter" style="rounded=0;whiteSpace=wrap;html=1;" parent="1" vertex="1">
                    <mxGeometry x="245" y="6077" width="80" height="30" as="geometry"/>
                </mxCell>
                <mxCell id="pyBZLqyqYAhqXGvSIkKt-14" value="Client" style="rounded=0;whiteSpace=wrap;html=1;" parent="1" vertex="1">
                    <mxGeometry x="189" y="6233.5" width="36" height="23" as="geometry"/>
                </mxCell>
                <mxCell id="pyBZLqyqYAhqXGvSIkKt-15" value="" style="shape=flexArrow;endArrow=classic;html=1;" parent="1" edge="1">
                    <mxGeometry width="50" height="50" relative="1" as="geometry">
                        <mxPoint x="545" y="6187" as="sourcePoint"/>
                        <mxPoint x="180" y="6187" as="targetPoint"/>
                    </mxGeometry>
                </mxCell>
                <mxCell id="pyBZLqyqYAhqXGvSIkKt-16" value="" style="shape=flexArrow;endArrow=classic;startArrow=classic;html=1;fillColor=#fff2cc;strokeColor=#d6b656;" parent="1" edge="1">
                    <mxGeometry width="100" height="100" relative="1" as="geometry">
                        <mxPoint x="285" y="6177" as="sourcePoint"/>
                        <mxPoint x="284.65999999999985" y="6107" as="targetPoint"/>
                    </mxGeometry>
                </mxCell>
                <mxCell id="pyBZLqyqYAhqXGvSIkKt-17" value="Driver" style="rounded=0;whiteSpace=wrap;html=1;" parent="1" vertex="1">
                    <mxGeometry x="238" y="6234.5" width="37" height="22" as="geometry"/>
                </mxCell>
                <mxCell id="pyBZLqyqYAhqXGvSIkKt-18" value="" style="endArrow=none;html=1;exitX=0.5;exitY=0;exitDx=0;exitDy=0;startArrow=classic;startFill=1;endFill=0;" parent="1" source="pyBZLqyqYAhqXGvSIkKt-14" edge="1">
                    <mxGeometry width="50" height="50" relative="1" as="geometry">
                        <mxPoint x="340" y="6203" as="sourcePoint"/>
                        <mxPoint x="231" y="6193" as="targetPoint"/>
                    </mxGeometry>
                </mxCell>
                <mxCell id="pyBZLqyqYAhqXGvSIkKt-19" value="" style="endArrow=none;html=1;startArrow=classic;startFill=1;endFill=0;exitX=0.5;exitY=0;exitDx=0;exitDy=0;" parent="1" source="pyBZLqyqYAhqXGvSIkKt-17" edge="1">
                    <mxGeometry width="50" height="50" relative="1" as="geometry">
                        <mxPoint x="217" y="6243.5" as="sourcePoint"/>
                        <mxPoint x="232" y="6192" as="targetPoint"/>
                    </mxGeometry>
                </mxCell>
                <mxCell id="pyBZLqyqYAhqXGvSIkKt-20" value="......" style="rounded=0;whiteSpace=wrap;html=1;align=left;" parent="1" vertex="1">
                    <mxGeometry x="305" y="6216" width="107" height="72" as="geometry"/>
                </mxCell>
                <mxCell id="pyBZLqyqYAhqXGvSIkKt-21" value="&lt;br&gt;&lt;br&gt;&lt;br&gt;pcf8563" style="rounded=0;whiteSpace=wrap;html=1;align=left;verticalAlign=bottom;" parent="1" vertex="1">
                    <mxGeometry x="428" y="6215" width="107" height="72" as="geometry"/>
                </mxCell>
                <mxCell id="pyBZLqyqYAhqXGvSIkKt-22" value="Client" style="rounded=0;whiteSpace=wrap;html=1;" parent="1" vertex="1">
                    <mxGeometry x="435" y="6233.5" width="36" height="23" as="geometry"/>
                </mxCell>
                <mxCell id="pyBZLqyqYAhqXGvSIkKt-23" value="Driver" style="rounded=0;whiteSpace=wrap;html=1;" parent="1" vertex="1">
                    <mxGeometry x="486" y="6233.5" width="37" height="22" as="geometry"/>
                </mxCell>
                <mxCell id="pyBZLqyqYAhqXGvSIkKt-24" value="" style="endArrow=none;html=1;exitX=0.5;exitY=0;exitDx=0;exitDy=0;startArrow=classic;startFill=1;endFill=0;" parent="1" edge="1">
                    <mxGeometry width="50" height="50" relative="1" as="geometry">
                        <mxPoint x="455" y="6233.5" as="sourcePoint"/>
                        <mxPoint x="479" y="6193" as="targetPoint"/>
                    </mxGeometry>
                </mxCell>
                <mxCell id="pyBZLqyqYAhqXGvSIkKt-25" value="" style="endArrow=none;html=1;startArrow=classic;startFill=1;endFill=0;exitX=0.5;exitY=0;exitDx=0;exitDy=0;" parent="1" edge="1">
                    <mxGeometry width="50" height="50" relative="1" as="geometry">
                        <mxPoint x="504.5" y="6234.5" as="sourcePoint"/>
                        <mxPoint x="480" y="6192" as="targetPoint"/>
                    </mxGeometry>
                </mxCell>
                <mxCell id="pyBZLqyqYAhqXGvSIkKt-26" value="" style="rounded=0;whiteSpace=wrap;html=1;fontSize=12;" parent="1" vertex="1">
                    <mxGeometry x="20" y="6760" width="780" height="620" as="geometry"/>
                </mxCell>
                <mxCell id="pyBZLqyqYAhqXGvSIkKt-27" value="" style="endArrow=none;dashed=1;html=1;fontSize=12;" parent="1" edge="1">
                    <mxGeometry width="50" height="50" relative="1" as="geometry">
                        <mxPoint x="30" y="6980" as="sourcePoint"/>
                        <mxPoint x="790" y="6980" as="targetPoint"/>
                    </mxGeometry>
                </mxCell>
                <mxCell id="pyBZLqyqYAhqXGvSIkKt-28" value="open/read/write/close" style="rounded=0;whiteSpace=wrap;html=1;fontSize=12;" parent="1" vertex="1">
                    <mxGeometry x="110" y="6780" width="120" height="40" as="geometry"/>
                </mxCell>
                <mxCell id="pyBZLqyqYAhqXGvSIkKt-29" value="/dev/ap3216" style="rounded=0;whiteSpace=wrap;html=1;fontSize=12;" parent="1" vertex="1">
                    <mxGeometry x="110" y="6900" width="120" height="40" as="geometry"/>
                </mxCell>
                <mxCell id="pyBZLqyqYAhqXGvSIkKt-30" value="character" style="rounded=0;whiteSpace=wrap;html=1;fontSize=12;" parent="1" vertex="1">
                    <mxGeometry x="110" y="7020" width="120" height="40" as="geometry"/>
                </mxCell>
                <mxCell id="pyBZLqyqYAhqXGvSIkKt-31" style="edgeStyle=none;html=1;entryX=0.5;entryY=0;entryDx=0;entryDy=0;strokeWidth=1;startArrow=none;startFill=0;endArrow=classic;endFill=1;startSize=4;endSize=4;exitX=0.5;exitY=1;exitDx=0;exitDy=0;fontSize=12;" parent="1" source="pyBZLqyqYAhqXGvSIkKt-32" target="pyBZLqyqYAhqXGvSIkKt-54" edge="1">
                    <mxGeometry relative="1" as="geometry"/>
                </mxCell>
                <mxCell id="pyBZLqyqYAhqXGvSIkKt-32" value="driver" style="rounded=0;whiteSpace=wrap;html=1;fontSize=12;" parent="1" vertex="1">
                    <mxGeometry x="190" y="7140" width="120" height="40" as="geometry"/>
                </mxCell>
                <mxCell id="pyBZLqyqYAhqXGvSIkKt-33" style="edgeStyle=none;html=1;strokeWidth=1;startArrow=none;startFill=0;endArrow=classic;endFill=1;startSize=4;endSize=4;fontSize=12;" parent="1" source="pyBZLqyqYAhqXGvSIkKt-34" target="pyBZLqyqYAhqXGvSIkKt-57" edge="1">
                    <mxGeometry relative="1" as="geometry"/>
                </mxCell>
                <mxCell id="pyBZLqyqYAhqXGvSIkKt-34" value="deivce" style="rounded=0;whiteSpace=wrap;html=1;fontSize=12;" parent="1" vertex="1">
                    <mxGeometry x="610" y="7140" width="120" height="40" as="geometry"/>
                </mxCell>
                <mxCell id="pyBZLqyqYAhqXGvSIkKt-35" value="class" style="rounded=0;whiteSpace=wrap;html=1;fontSize=12;" parent="1" vertex="1">
                    <mxGeometry x="270" y="7020" width="120" height="40" as="geometry"/>
                </mxCell>
                <mxCell id="pyBZLqyqYAhqXGvSIkKt-36" value="i2c bus" style="text;html=1;strokeColor=none;fillColor=none;align=center;verticalAlign=middle;whiteSpace=wrap;rounded=0;fontSize=12;horizontal=1;" parent="1" vertex="1">
                    <mxGeometry x="450" y="7020" width="80" height="40" as="geometry"/>
                </mxCell>
                <mxCell id="pyBZLqyqYAhqXGvSIkKt-37" value="device tree" style="rounded=0;whiteSpace=wrap;html=1;fontSize=12;" parent="1" vertex="1">
                    <mxGeometry x="610" y="7020" width="120" height="40" as="geometry"/>
                </mxCell>
                <mxCell id="pyBZLqyqYAhqXGvSIkKt-38" value="/proc/deivce-tree/[node]" style="rounded=0;whiteSpace=wrap;html=1;fontSize=12;" parent="1" vertex="1">
                    <mxGeometry x="600" y="6900" width="140" height="40" as="geometry"/>
                </mxCell>
                <mxCell id="pyBZLqyqYAhqXGvSIkKt-39" value="/sys/class/ap3216/*" style="rounded=0;whiteSpace=wrap;html=1;fontSize=12;" parent="1" vertex="1">
                    <mxGeometry x="270" y="6900" width="120" height="40" as="geometry"/>
                </mxCell>
                <mxCell id="pyBZLqyqYAhqXGvSIkKt-40" value="/sys/bus/i2c/devices/0-001e/" style="rounded=0;whiteSpace=wrap;html=1;fontSize=12;" parent="1" vertex="1">
                    <mxGeometry x="400" y="6900" width="180" height="40" as="geometry"/>
                </mxCell>
                <mxCell id="pyBZLqyqYAhqXGvSIkKt-41" value="" style="shape=flexArrow;endArrow=classic;startArrow=classic;html=1;endSize=4;startSize=4;strokeWidth=1;width=6;fontSize=12;" parent="1" source="pyBZLqyqYAhqXGvSIkKt-29" edge="1">
                    <mxGeometry width="100" height="100" relative="1" as="geometry">
                        <mxPoint x="70" y="6920" as="sourcePoint"/>
                        <mxPoint x="170" y="6820" as="targetPoint"/>
                    </mxGeometry>
                </mxCell>
                <mxCell id="pyBZLqyqYAhqXGvSIkKt-42" value="" style="shape=flexArrow;endArrow=classic;startArrow=classic;html=1;endSize=4;startSize=4;strokeWidth=1;width=6;fontSize=12;" parent="1" edge="1">
                    <mxGeometry width="100" height="100" relative="1" as="geometry">
                        <mxPoint x="169.5" y="7020" as="sourcePoint"/>
                        <mxPoint x="169.5" y="6940" as="targetPoint"/>
                    </mxGeometry>
                </mxCell>
                <mxCell id="pyBZLqyqYAhqXGvSIkKt-43" value="" style="shape=flexArrow;endArrow=classic;startArrow=classic;html=1;endSize=4;startSize=4;strokeWidth=1;width=6;fontSize=12;" parent="1" edge="1">
                    <mxGeometry width="100" height="100" relative="1" as="geometry">
                        <mxPoint x="329.4999999999998" y="7020" as="sourcePoint"/>
                        <mxPoint x="329.4999999999998" y="6940" as="targetPoint"/>
                    </mxGeometry>
                </mxCell>
                <mxCell id="pyBZLqyqYAhqXGvSIkKt-44" value="" style="shape=flexArrow;endArrow=classic;startArrow=classic;html=1;endSize=4;startSize=4;strokeWidth=1;width=6;fontSize=12;" parent="1" edge="1">
                    <mxGeometry width="100" height="100" relative="1" as="geometry">
                        <mxPoint x="489.4999999999998" y="7020" as="sourcePoint"/>
                        <mxPoint x="489.4999999999998" y="6940" as="targetPoint"/>
                    </mxGeometry>
                </mxCell>
                <mxCell id="pyBZLqyqYAhqXGvSIkKt-45" value="" style="shape=flexArrow;endArrow=classic;startArrow=classic;html=1;endSize=4;startSize=4;strokeWidth=1;width=6;fontSize=12;" parent="1" edge="1">
                    <mxGeometry width="100" height="100" relative="1" as="geometry">
                        <mxPoint x="669.5" y="7020" as="sourcePoint"/>
                        <mxPoint x="669.5" y="6940" as="targetPoint"/>
                    </mxGeometry>
                </mxCell>
                <mxCell id="pyBZLqyqYAhqXGvSIkKt-46" value="" style="endArrow=classic;html=1;strokeWidth=1;startSize=4;endSize=4;exitX=0.5;exitY=1;exitDx=0;exitDy=0;fontSize=12;" parent="1" source="pyBZLqyqYAhqXGvSIkKt-37" target="pyBZLqyqYAhqXGvSIkKt-34" edge="1">
                    <mxGeometry width="50" height="50" relative="1" as="geometry">
                        <mxPoint x="440" y="7090" as="sourcePoint"/>
                        <mxPoint x="680" y="7080" as="targetPoint"/>
                    </mxGeometry>
                </mxCell>
                <mxCell id="pyBZLqyqYAhqXGvSIkKt-47" value="" style="endArrow=none;dashed=1;html=1;fontSize=12;" parent="1" edge="1">
                    <mxGeometry width="50" height="50" relative="1" as="geometry">
                        <mxPoint x="30" y="7290" as="sourcePoint"/>
                        <mxPoint x="790" y="7290" as="targetPoint"/>
                    </mxGeometry>
                </mxCell>
                <mxCell id="pyBZLqyqYAhqXGvSIkKt-48" value="应用层" style="text;html=1;strokeColor=none;fillColor=none;align=center;verticalAlign=middle;whiteSpace=wrap;rounded=0;fontSize=12;" parent="1" vertex="1">
                    <mxGeometry x="30" y="6880" width="60" height="30" as="geometry"/>
                </mxCell>
                <mxCell id="pyBZLqyqYAhqXGvSIkKt-49" value="内核层" style="text;html=1;strokeColor=none;fillColor=none;align=center;verticalAlign=middle;whiteSpace=wrap;rounded=0;fontSize=12;" parent="1" vertex="1">
                    <mxGeometry x="30" y="7090" width="60" height="30" as="geometry"/>
                </mxCell>
                <mxCell id="pyBZLqyqYAhqXGvSIkKt-50" value="i2c字符驱动框架" style="text;html=1;strokeColor=none;fillColor=none;align=center;verticalAlign=middle;whiteSpace=wrap;rounded=0;fontSize=12;" parent="1" vertex="1">
                    <mxGeometry x="490" y="6780" width="160" height="60" as="geometry"/>
                </mxCell>
                <mxCell id="pyBZLqyqYAhqXGvSIkKt-51" value="" style="endArrow=classic;html=1;strokeWidth=1;startSize=4;endSize=4;entryX=0.5;entryY=1;entryDx=0;entryDy=0;exitX=0.5;exitY=0;exitDx=0;exitDy=0;fontSize=12;" parent="1" source="pyBZLqyqYAhqXGvSIkKt-32" target="pyBZLqyqYAhqXGvSIkKt-30" edge="1">
                    <mxGeometry width="50" height="50" relative="1" as="geometry">
                        <mxPoint x="320" y="7130" as="sourcePoint"/>
                        <mxPoint x="370" y="7080" as="targetPoint"/>
                    </mxGeometry>
                </mxCell>
                <mxCell id="pyBZLqyqYAhqXGvSIkKt-52" value="" style="endArrow=classic;html=1;strokeWidth=1;startSize=4;endSize=4;entryX=0.5;entryY=1;entryDx=0;entryDy=0;fontSize=12;" parent="1" target="pyBZLqyqYAhqXGvSIkKt-35" edge="1">
                    <mxGeometry width="50" height="50" relative="1" as="geometry">
                        <mxPoint x="250.00000000000023" y="7140" as="sourcePoint"/>
                        <mxPoint x="300" y="7090" as="targetPoint"/>
                    </mxGeometry>
                </mxCell>
                <mxCell id="pyBZLqyqYAhqXGvSIkKt-53" style="edgeStyle=none;html=1;entryX=0.5;entryY=0;entryDx=0;entryDy=0;strokeWidth=1;startArrow=none;startFill=0;endArrow=classic;endFill=1;startSize=4;endSize=4;fontSize=12;" parent="1" source="pyBZLqyqYAhqXGvSIkKt-54" target="pyBZLqyqYAhqXGvSIkKt-55" edge="1">
                    <mxGeometry relative="1" as="geometry"/>
                </mxCell>
                <mxCell id="pyBZLqyqYAhqXGvSIkKt-54" value="i2c_translate" style="rounded=0;whiteSpace=wrap;html=1;fontSize=12;" parent="1" vertex="1">
                    <mxGeometry x="190" y="7220" width="120" height="40" as="geometry"/>
                </mxCell>
                <mxCell id="pyBZLqyqYAhqXGvSIkKt-55" value="hardware&lt;br style=&quot;font-size: 12px;&quot;&gt;(senor, rtc......)" style="rounded=0;whiteSpace=wrap;html=1;fontSize=12;" parent="1" vertex="1">
                    <mxGeometry x="380" y="7325" width="120" height="40" as="geometry"/>
                </mxCell>
                <mxCell id="pyBZLqyqYAhqXGvSIkKt-56" value="物理层" style="text;html=1;strokeColor=none;fillColor=none;align=center;verticalAlign=middle;whiteSpace=wrap;rounded=0;fontSize=12;" parent="1" vertex="1">
                    <mxGeometry x="30" y="7330" width="60" height="30" as="geometry"/>
                </mxCell>
                <mxCell id="pyBZLqyqYAhqXGvSIkKt-57" value="register" style="rounded=0;whiteSpace=wrap;html=1;fontSize=12;" parent="1" vertex="1">
                    <mxGeometry x="610" y="7220" width="120" height="40" as="geometry"/>
                </mxCell>
                <mxCell id="pyBZLqyqYAhqXGvSIkKt-58" value="" style="endArrow=classic;html=1;strokeWidth=1;startSize=4;endSize=4;exitX=0.5;exitY=1;exitDx=0;exitDy=0;entryX=0.5;entryY=0;entryDx=0;entryDy=0;fontSize=12;" parent="1" source="pyBZLqyqYAhqXGvSIkKt-57" target="pyBZLqyqYAhqXGvSIkKt-55" edge="1">
                    <mxGeometry width="50" height="50" relative="1" as="geometry">
                        <mxPoint x="660" y="7365" as="sourcePoint"/>
                        <mxPoint x="710" y="7315" as="targetPoint"/>
                    </mxGeometry>
                </mxCell>
                <mxCell id="pyBZLqyqYAhqXGvSIkKt-59" value="" style="shape=flexArrow;endArrow=none;startArrow=block;html=1;strokeWidth=1;fontSize=12;startSize=4;endSize=4;width=12;startFill=0;endFill=0;" parent="1" edge="1">
                    <mxGeometry width="100" height="100" relative="1" as="geometry">
                        <mxPoint x="490.0000000000002" y="7260" as="sourcePoint"/>
                        <mxPoint x="490.0000000000002" y="7060" as="targetPoint"/>
                    </mxGeometry>
                </mxCell>
                <mxCell id="pyBZLqyqYAhqXGvSIkKt-60" value="" style="shape=flexArrow;endArrow=classic;startArrow=classic;html=1;strokeWidth=1;fontSize=12;startSize=4;endSize=4;width=7;" parent="1" edge="1">
                    <mxGeometry width="100" height="100" relative="1" as="geometry">
                        <mxPoint x="310.0000000000002" y="7160" as="sourcePoint"/>
                        <mxPoint x="480.0000000000002" y="7140" as="targetPoint"/>
                    </mxGeometry>
                </mxCell>
                <mxCell id="pyBZLqyqYAhqXGvSIkKt-61" value="" style="shape=flexArrow;endArrow=classic;startArrow=classic;html=1;strokeWidth=1;fontSize=12;startSize=4;endSize=4;entryX=0;entryY=0.5;entryDx=0;entryDy=0;width=7;" parent="1" target="pyBZLqyqYAhqXGvSIkKt-34" edge="1">
                    <mxGeometry width="100" height="100" relative="1" as="geometry">
                        <mxPoint x="500.0000000000002" y="7140" as="sourcePoint"/>
                        <mxPoint x="600" y="7120" as="targetPoint"/>
                    </mxGeometry>
                </mxCell>
                <mxCell id="pyBZLqyqYAhqXGvSIkKt-62" value="I2C驱动框架" style="text;html=1;align=center;verticalAlign=middle;whiteSpace=wrap;rounded=0;fontSize=20;" parent="1" vertex="1">
                    <mxGeometry x="60" y="5532" width="170.5" height="82" as="geometry"/>
                </mxCell>
            </root>
        </mxGraphModel>
    </diagram>
    <diagram id="P4d5g0vsARerRRiS_Wbl" name="08.spi">
        <mxGraphModel dx="917" dy="-7254" grid="1" gridSize="10" guides="1" tooltips="1" connect="1" arrows="1" fold="1" page="1" pageScale="1" pageWidth="850" pageHeight="1100" math="0" shadow="0">
            <root>
                <mxCell id="0"/>
                <mxCell id="1" parent="0"/>
                <mxCell id="lXOH9LN4a131T6tKyx4N-1" value="" style="rounded=0;whiteSpace=wrap;html=1;dashed=1;" parent="1" vertex="1">
                    <mxGeometry x="207.5" y="7932" width="450" height="460" as="geometry"/>
                </mxCell>
                <mxCell id="lXOH9LN4a131T6tKyx4N-2" value="" style="rounded=0;whiteSpace=wrap;html=1;fillColor=#dae8fc;strokeColor=#6c8ebf;" parent="1" vertex="1">
                    <mxGeometry x="227.5" y="7952" width="406" height="330" as="geometry"/>
                </mxCell>
                <mxCell id="lXOH9LN4a131T6tKyx4N-3" value="SPI Master" style="rounded=0;whiteSpace=wrap;html=1;" parent="1" vertex="1">
                    <mxGeometry x="313.5" y="8142" width="80" height="30" as="geometry"/>
                </mxCell>
                <mxCell id="lXOH9LN4a131T6tKyx4N-4" value="icm26068" style="rounded=0;whiteSpace=wrap;html=1;" parent="1" vertex="1">
                    <mxGeometry x="280.5" y="8338" width="60" height="30" as="geometry"/>
                </mxCell>
                <mxCell id="lXOH9LN4a131T6tKyx4N-5" value="..." style="rounded=0;whiteSpace=wrap;html=1;" parent="1" vertex="1">
                    <mxGeometry x="390" y="8338" width="60" height="30" as="geometry"/>
                </mxCell>
                <mxCell id="lXOH9LN4a131T6tKyx4N-6" value="ad7791" style="rounded=0;whiteSpace=wrap;html=1;" parent="1" vertex="1">
                    <mxGeometry x="496.5" y="8338" width="60" height="30" as="geometry"/>
                </mxCell>
                <mxCell id="lXOH9LN4a131T6tKyx4N-7" value="" style="shape=flexArrow;endArrow=classic;html=1;" parent="1" edge="1">
                    <mxGeometry width="50" height="50" relative="1" as="geometry">
                        <mxPoint x="613.5" y="8242" as="sourcePoint"/>
                        <mxPoint x="248.5" y="8242" as="targetPoint"/>
                    </mxGeometry>
                </mxCell>
                <mxCell id="lXOH9LN4a131T6tKyx4N-8" value="" style="shape=flexArrow;endArrow=classic;startArrow=classic;html=1;fillColor=#fff2cc;strokeColor=#d6b656;" parent="1" edge="1">
                    <mxGeometry width="100" height="100" relative="1" as="geometry">
                        <mxPoint x="353.5" y="8232" as="sourcePoint"/>
                        <mxPoint x="353.5" y="8172" as="targetPoint"/>
                    </mxGeometry>
                </mxCell>
                <mxCell id="lXOH9LN4a131T6tKyx4N-9" value="" style="shape=flexArrow;endArrow=classic;startArrow=classic;html=1;exitX=0.5;exitY=0;exitDx=0;exitDy=0;fillColor=#fff2cc;strokeColor=#d6b656;" parent="1" edge="1">
                    <mxGeometry width="100" height="100" relative="1" as="geometry">
                        <mxPoint x="311.4999999999998" y="8338" as="sourcePoint"/>
                        <mxPoint x="311.4999999999998" y="8248" as="targetPoint"/>
                    </mxGeometry>
                </mxCell>
                <mxCell id="lXOH9LN4a131T6tKyx4N-10" value="" style="shape=flexArrow;endArrow=classic;startArrow=classic;html=1;exitX=0.5;exitY=0;exitDx=0;exitDy=0;fillColor=#fff2cc;strokeColor=#d6b656;" parent="1" edge="1">
                    <mxGeometry width="100" height="100" relative="1" as="geometry">
                        <mxPoint x="527.4999999999998" y="8338" as="sourcePoint"/>
                        <mxPoint x="527.4999999999998" y="8248" as="targetPoint"/>
                    </mxGeometry>
                </mxCell>
                <mxCell id="lXOH9LN4a131T6tKyx4N-11" value="" style="shape=flexArrow;endArrow=classic;startArrow=classic;html=1;exitX=0.5;exitY=0;exitDx=0;exitDy=0;fillColor=#fff2cc;strokeColor=#d6b656;" parent="1" edge="1">
                    <mxGeometry width="100" height="100" relative="1" as="geometry">
                        <mxPoint x="419.5799999999999" y="8338" as="sourcePoint"/>
                        <mxPoint x="419.5799999999999" y="8248" as="targetPoint"/>
                    </mxGeometry>
                </mxCell>
                <mxCell id="lXOH9LN4a131T6tKyx4N-12" value="" style="shape=flexArrow;endArrow=classic;html=1;" parent="1" edge="1">
                    <mxGeometry width="50" height="50" relative="1" as="geometry">
                        <mxPoint x="602.5" y="8082" as="sourcePoint"/>
                        <mxPoint x="237.5" y="8082" as="targetPoint"/>
                    </mxGeometry>
                </mxCell>
                <mxCell id="lXOH9LN4a131T6tKyx4N-13" value="CPU Core" style="rounded=0;whiteSpace=wrap;html=1;" parent="1" vertex="1">
                    <mxGeometry x="313.5" y="7982" width="80" height="30" as="geometry"/>
                </mxCell>
                <mxCell id="lXOH9LN4a131T6tKyx4N-14" value="" style="shape=flexArrow;endArrow=classic;startArrow=classic;html=1;fillColor=#fff2cc;strokeColor=#d6b656;" parent="1" target="lXOH9LN4a131T6tKyx4N-13" edge="1">
                    <mxGeometry width="100" height="100" relative="1" as="geometry">
                        <mxPoint x="353.5" y="8072" as="sourcePoint"/>
                        <mxPoint x="349.65999999999985" y="8022" as="targetPoint"/>
                    </mxGeometry>
                </mxCell>
                <mxCell id="lXOH9LN4a131T6tKyx4N-15" value="" style="shape=flexArrow;endArrow=classic;startArrow=classic;html=1;fillColor=#fff2cc;strokeColor=#d6b656;exitX=0.5;exitY=0;exitDx=0;exitDy=0;" parent="1" source="lXOH9LN4a131T6tKyx4N-3" edge="1">
                    <mxGeometry width="100" height="100" relative="1" as="geometry">
                        <mxPoint x="353.5" y="8132" as="sourcePoint"/>
                        <mxPoint x="353.26" y="8087" as="targetPoint"/>
                    </mxGeometry>
                </mxCell>
                <mxCell id="lXOH9LN4a131T6tKyx4N-16" value="芯片SOC" style="text;html=1;strokeColor=none;fillColor=none;align=center;verticalAlign=middle;whiteSpace=wrap;rounded=0;" parent="1" vertex="1">
                    <mxGeometry x="543.5" y="7972" width="60" height="30" as="geometry"/>
                </mxCell>
                <mxCell id="lXOH9LN4a131T6tKyx4N-17" value="外部器件" style="text;html=1;strokeColor=none;fillColor=none;align=center;verticalAlign=middle;whiteSpace=wrap;rounded=0;" parent="1" vertex="1">
                    <mxGeometry x="563.5" y="8292" width="60" height="30" as="geometry"/>
                </mxCell>
                <mxCell id="lXOH9LN4a131T6tKyx4N-18" value="" style="rounded=0;whiteSpace=wrap;html=1;fontSize=12;" parent="1" vertex="1">
                    <mxGeometry x="37" y="9011" width="780" height="620" as="geometry"/>
                </mxCell>
                <mxCell id="lXOH9LN4a131T6tKyx4N-19" value="" style="endArrow=none;dashed=1;html=1;fontSize=12;" parent="1" edge="1">
                    <mxGeometry width="50" height="50" relative="1" as="geometry">
                        <mxPoint x="47" y="9231" as="sourcePoint"/>
                        <mxPoint x="807" y="9231" as="targetPoint"/>
                    </mxGeometry>
                </mxCell>
                <mxCell id="lXOH9LN4a131T6tKyx4N-20" value="open/read/write/close" style="rounded=0;whiteSpace=wrap;html=1;fontSize=12;" parent="1" vertex="1">
                    <mxGeometry x="127" y="9031" width="120" height="40" as="geometry"/>
                </mxCell>
                <mxCell id="lXOH9LN4a131T6tKyx4N-21" value="/dev/icm20608" style="rounded=0;whiteSpace=wrap;html=1;fontSize=12;" parent="1" vertex="1">
                    <mxGeometry x="127" y="9151" width="120" height="40" as="geometry"/>
                </mxCell>
                <mxCell id="lXOH9LN4a131T6tKyx4N-22" value="character" style="rounded=0;whiteSpace=wrap;html=1;fontSize=12;" parent="1" vertex="1">
                    <mxGeometry x="127" y="9271" width="120" height="40" as="geometry"/>
                </mxCell>
                <mxCell id="lXOH9LN4a131T6tKyx4N-23" style="edgeStyle=none;html=1;entryX=0.5;entryY=0;entryDx=0;entryDy=0;strokeWidth=1;startArrow=none;startFill=0;endArrow=classic;endFill=1;startSize=4;endSize=4;exitX=0.5;exitY=1;exitDx=0;exitDy=0;fontSize=12;" parent="1" source="lXOH9LN4a131T6tKyx4N-24" target="lXOH9LN4a131T6tKyx4N-46" edge="1">
                    <mxGeometry relative="1" as="geometry"/>
                </mxCell>
                <mxCell id="lXOH9LN4a131T6tKyx4N-24" value="driver" style="rounded=0;whiteSpace=wrap;html=1;fontSize=12;" parent="1" vertex="1">
                    <mxGeometry x="207" y="9391" width="120" height="40" as="geometry"/>
                </mxCell>
                <mxCell id="lXOH9LN4a131T6tKyx4N-25" style="edgeStyle=none;html=1;strokeWidth=1;startArrow=none;startFill=0;endArrow=classic;endFill=1;startSize=4;endSize=4;fontSize=12;" parent="1" source="lXOH9LN4a131T6tKyx4N-26" target="lXOH9LN4a131T6tKyx4N-49" edge="1">
                    <mxGeometry relative="1" as="geometry"/>
                </mxCell>
                <mxCell id="lXOH9LN4a131T6tKyx4N-26" value="deivce" style="rounded=0;whiteSpace=wrap;html=1;fontSize=12;" parent="1" vertex="1">
                    <mxGeometry x="627" y="9391" width="120" height="40" as="geometry"/>
                </mxCell>
                <mxCell id="lXOH9LN4a131T6tKyx4N-27" value="class" style="rounded=0;whiteSpace=wrap;html=1;fontSize=12;" parent="1" vertex="1">
                    <mxGeometry x="287" y="9271" width="120" height="40" as="geometry"/>
                </mxCell>
                <mxCell id="lXOH9LN4a131T6tKyx4N-28" value="spi bus" style="text;html=1;strokeColor=none;fillColor=none;align=center;verticalAlign=middle;whiteSpace=wrap;rounded=0;fontSize=12;horizontal=1;" parent="1" vertex="1">
                    <mxGeometry x="467" y="9271" width="80" height="40" as="geometry"/>
                </mxCell>
                <mxCell id="lXOH9LN4a131T6tKyx4N-29" value="device tree" style="rounded=0;whiteSpace=wrap;html=1;fontSize=12;" parent="1" vertex="1">
                    <mxGeometry x="627" y="9271" width="120" height="40" as="geometry"/>
                </mxCell>
                <mxCell id="lXOH9LN4a131T6tKyx4N-30" value="/proc/deivce-tree/[node]" style="rounded=0;whiteSpace=wrap;html=1;fontSize=12;" parent="1" vertex="1">
                    <mxGeometry x="617" y="9151" width="140" height="40" as="geometry"/>
                </mxCell>
                <mxCell id="lXOH9LN4a131T6tKyx4N-31" value="/sys/class/icm20608/*" style="rounded=0;whiteSpace=wrap;html=1;fontSize=12;" parent="1" vertex="1">
                    <mxGeometry x="287" y="9151" width="120" height="40" as="geometry"/>
                </mxCell>
                <mxCell id="lXOH9LN4a131T6tKyx4N-32" value="/sys/bus/spi/devices/spi2.0/" style="rounded=0;whiteSpace=wrap;html=1;fontSize=12;" parent="1" vertex="1">
                    <mxGeometry x="417" y="9151" width="180" height="40" as="geometry"/>
                </mxCell>
                <mxCell id="lXOH9LN4a131T6tKyx4N-33" value="" style="shape=flexArrow;endArrow=classic;startArrow=classic;html=1;endSize=4;startSize=4;strokeWidth=1;width=6;fontSize=12;" parent="1" source="lXOH9LN4a131T6tKyx4N-21" edge="1">
                    <mxGeometry width="100" height="100" relative="1" as="geometry">
                        <mxPoint x="87" y="9171" as="sourcePoint"/>
                        <mxPoint x="187" y="9071" as="targetPoint"/>
                    </mxGeometry>
                </mxCell>
                <mxCell id="lXOH9LN4a131T6tKyx4N-34" value="" style="shape=flexArrow;endArrow=classic;startArrow=classic;html=1;endSize=4;startSize=4;strokeWidth=1;width=6;fontSize=12;" parent="1" edge="1">
                    <mxGeometry width="100" height="100" relative="1" as="geometry">
                        <mxPoint x="186.5" y="9271" as="sourcePoint"/>
                        <mxPoint x="186.5" y="9191" as="targetPoint"/>
                    </mxGeometry>
                </mxCell>
                <mxCell id="lXOH9LN4a131T6tKyx4N-35" value="" style="shape=flexArrow;endArrow=classic;startArrow=classic;html=1;endSize=4;startSize=4;strokeWidth=1;width=6;fontSize=12;" parent="1" edge="1">
                    <mxGeometry width="100" height="100" relative="1" as="geometry">
                        <mxPoint x="346.4999999999998" y="9271" as="sourcePoint"/>
                        <mxPoint x="346.4999999999998" y="9191" as="targetPoint"/>
                    </mxGeometry>
                </mxCell>
                <mxCell id="lXOH9LN4a131T6tKyx4N-36" value="" style="shape=flexArrow;endArrow=classic;startArrow=classic;html=1;endSize=4;startSize=4;strokeWidth=1;width=6;fontSize=12;" parent="1" edge="1">
                    <mxGeometry width="100" height="100" relative="1" as="geometry">
                        <mxPoint x="506.4999999999998" y="9271" as="sourcePoint"/>
                        <mxPoint x="506.4999999999998" y="9191" as="targetPoint"/>
                    </mxGeometry>
                </mxCell>
                <mxCell id="lXOH9LN4a131T6tKyx4N-37" value="" style="shape=flexArrow;endArrow=classic;startArrow=classic;html=1;endSize=4;startSize=4;strokeWidth=1;width=6;fontSize=12;" parent="1" edge="1">
                    <mxGeometry width="100" height="100" relative="1" as="geometry">
                        <mxPoint x="686.5" y="9271" as="sourcePoint"/>
                        <mxPoint x="686.5" y="9191" as="targetPoint"/>
                    </mxGeometry>
                </mxCell>
                <mxCell id="lXOH9LN4a131T6tKyx4N-38" value="" style="endArrow=classic;html=1;strokeWidth=1;startSize=4;endSize=4;exitX=0.5;exitY=1;exitDx=0;exitDy=0;fontSize=12;" parent="1" source="lXOH9LN4a131T6tKyx4N-29" target="lXOH9LN4a131T6tKyx4N-26" edge="1">
                    <mxGeometry width="50" height="50" relative="1" as="geometry">
                        <mxPoint x="457" y="9341" as="sourcePoint"/>
                        <mxPoint x="697" y="9331" as="targetPoint"/>
                    </mxGeometry>
                </mxCell>
                <mxCell id="lXOH9LN4a131T6tKyx4N-39" value="" style="endArrow=none;dashed=1;html=1;fontSize=12;" parent="1" edge="1">
                    <mxGeometry width="50" height="50" relative="1" as="geometry">
                        <mxPoint x="47" y="9541" as="sourcePoint"/>
                        <mxPoint x="807" y="9541" as="targetPoint"/>
                    </mxGeometry>
                </mxCell>
                <mxCell id="lXOH9LN4a131T6tKyx4N-40" value="应用层" style="text;html=1;strokeColor=none;fillColor=none;align=center;verticalAlign=middle;whiteSpace=wrap;rounded=0;fontSize=12;" parent="1" vertex="1">
                    <mxGeometry x="47" y="9131" width="60" height="30" as="geometry"/>
                </mxCell>
                <mxCell id="lXOH9LN4a131T6tKyx4N-41" value="内核层" style="text;html=1;strokeColor=none;fillColor=none;align=center;verticalAlign=middle;whiteSpace=wrap;rounded=0;fontSize=12;" parent="1" vertex="1">
                    <mxGeometry x="47" y="9341" width="60" height="30" as="geometry"/>
                </mxCell>
                <mxCell id="lXOH9LN4a131T6tKyx4N-42" value="spi字符驱动框架" style="text;html=1;strokeColor=none;fillColor=none;align=center;verticalAlign=middle;whiteSpace=wrap;rounded=0;fontSize=12;" parent="1" vertex="1">
                    <mxGeometry x="507" y="9031" width="160" height="60" as="geometry"/>
                </mxCell>
                <mxCell id="lXOH9LN4a131T6tKyx4N-43" value="" style="endArrow=classic;html=1;strokeWidth=1;startSize=4;endSize=4;entryX=0.5;entryY=1;entryDx=0;entryDy=0;exitX=0.5;exitY=0;exitDx=0;exitDy=0;fontSize=12;" parent="1" source="lXOH9LN4a131T6tKyx4N-24" target="lXOH9LN4a131T6tKyx4N-22" edge="1">
                    <mxGeometry width="50" height="50" relative="1" as="geometry">
                        <mxPoint x="337" y="9381" as="sourcePoint"/>
                        <mxPoint x="387" y="9331" as="targetPoint"/>
                    </mxGeometry>
                </mxCell>
                <mxCell id="lXOH9LN4a131T6tKyx4N-44" value="" style="endArrow=classic;html=1;strokeWidth=1;startSize=4;endSize=4;entryX=0.5;entryY=1;entryDx=0;entryDy=0;fontSize=12;" parent="1" target="lXOH9LN4a131T6tKyx4N-27" edge="1">
                    <mxGeometry width="50" height="50" relative="1" as="geometry">
                        <mxPoint x="267.0000000000002" y="9391" as="sourcePoint"/>
                        <mxPoint x="317" y="9341" as="targetPoint"/>
                    </mxGeometry>
                </mxCell>
                <mxCell id="lXOH9LN4a131T6tKyx4N-45" style="edgeStyle=none;html=1;entryX=0.5;entryY=0;entryDx=0;entryDy=0;strokeWidth=1;startArrow=none;startFill=0;endArrow=classic;endFill=1;startSize=4;endSize=4;fontSize=12;" parent="1" source="lXOH9LN4a131T6tKyx4N-46" target="lXOH9LN4a131T6tKyx4N-47" edge="1">
                    <mxGeometry relative="1" as="geometry"/>
                </mxCell>
                <mxCell id="lXOH9LN4a131T6tKyx4N-46" value="spi_translate" style="rounded=0;whiteSpace=wrap;html=1;fontSize=12;" parent="1" vertex="1">
                    <mxGeometry x="207" y="9471" width="120" height="40" as="geometry"/>
                </mxCell>
                <mxCell id="lXOH9LN4a131T6tKyx4N-47" value="hardware&lt;br style=&quot;font-size: 12px;&quot;&gt;(senor, adc......)" style="rounded=0;whiteSpace=wrap;html=1;fontSize=12;" parent="1" vertex="1">
                    <mxGeometry x="397" y="9576" width="120" height="40" as="geometry"/>
                </mxCell>
                <mxCell id="lXOH9LN4a131T6tKyx4N-48" value="物理层" style="text;html=1;strokeColor=none;fillColor=none;align=center;verticalAlign=middle;whiteSpace=wrap;rounded=0;fontSize=12;" parent="1" vertex="1">
                    <mxGeometry x="47" y="9581" width="60" height="30" as="geometry"/>
                </mxCell>
                <mxCell id="lXOH9LN4a131T6tKyx4N-49" value="cs-gpios/reg" style="rounded=0;whiteSpace=wrap;html=1;fontSize=12;" parent="1" vertex="1">
                    <mxGeometry x="627" y="9471" width="120" height="40" as="geometry"/>
                </mxCell>
                <mxCell id="lXOH9LN4a131T6tKyx4N-50" value="" style="endArrow=classic;html=1;strokeWidth=1;startSize=4;endSize=4;exitX=0.5;exitY=1;exitDx=0;exitDy=0;entryX=0.5;entryY=0;entryDx=0;entryDy=0;fontSize=12;" parent="1" source="lXOH9LN4a131T6tKyx4N-49" target="lXOH9LN4a131T6tKyx4N-47" edge="1">
                    <mxGeometry width="50" height="50" relative="1" as="geometry">
                        <mxPoint x="677" y="9616" as="sourcePoint"/>
                        <mxPoint x="727" y="9566" as="targetPoint"/>
                    </mxGeometry>
                </mxCell>
                <mxCell id="lXOH9LN4a131T6tKyx4N-51" value="" style="shape=flexArrow;endArrow=none;startArrow=block;html=1;strokeWidth=1;fontSize=12;startSize=4;endSize=4;width=12;startFill=0;endFill=0;" parent="1" edge="1">
                    <mxGeometry width="100" height="100" relative="1" as="geometry">
                        <mxPoint x="507.0000000000002" y="9511" as="sourcePoint"/>
                        <mxPoint x="507.0000000000002" y="9311" as="targetPoint"/>
                    </mxGeometry>
                </mxCell>
                <mxCell id="lXOH9LN4a131T6tKyx4N-52" value="" style="shape=flexArrow;endArrow=classic;startArrow=classic;html=1;strokeWidth=1;fontSize=12;startSize=4;endSize=4;width=7;" parent="1" edge="1">
                    <mxGeometry width="100" height="100" relative="1" as="geometry">
                        <mxPoint x="327.0000000000002" y="9411" as="sourcePoint"/>
                        <mxPoint x="497.0000000000002" y="9391" as="targetPoint"/>
                    </mxGeometry>
                </mxCell>
                <mxCell id="lXOH9LN4a131T6tKyx4N-53" value="" style="shape=flexArrow;endArrow=classic;startArrow=classic;html=1;strokeWidth=1;fontSize=12;startSize=4;endSize=4;entryX=0;entryY=0.5;entryDx=0;entryDy=0;width=7;" parent="1" target="lXOH9LN4a131T6tKyx4N-26" edge="1">
                    <mxGeometry width="100" height="100" relative="1" as="geometry">
                        <mxPoint x="517.0000000000002" y="9391" as="sourcePoint"/>
                        <mxPoint x="617" y="9371" as="targetPoint"/>
                    </mxGeometry>
                </mxCell>
                <mxCell id="lXOH9LN4a131T6tKyx4N-54" value="SPI驱动框架" style="text;html=1;align=center;verticalAlign=middle;whiteSpace=wrap;rounded=0;fontSize=20;" parent="1" vertex="1">
                    <mxGeometry x="25" y="7781" width="170.5" height="82" as="geometry"/>
                </mxCell>
                <mxCell id="lXOH9LN4a131T6tKyx4N-55" value="SPI BUS" style="text;html=1;align=center;verticalAlign=middle;whiteSpace=wrap;rounded=0;" parent="1" vertex="1">
                    <mxGeometry x="417.5" y="8216" width="60" height="30" as="geometry"/>
                </mxCell>
                <mxCell id="lXOH9LN4a131T6tKyx4N-56" value="Platform BUS" style="text;html=1;align=center;verticalAlign=middle;whiteSpace=wrap;rounded=0;" parent="1" vertex="1">
                    <mxGeometry x="397.5" y="8050" width="103" height="30" as="geometry"/>
                </mxCell>
            </root>
        </mxGraphModel>
    </diagram>
    <diagram id="EA59XUGBh-TygRf_LP-k" name="09.iio">
        <mxGraphModel dx="917" dy="446" grid="1" gridSize="10" guides="1" tooltips="1" connect="1" arrows="1" fold="1" page="1" pageScale="1" pageWidth="850" pageHeight="1100" math="0" shadow="0">
            <root>
                <mxCell id="0"/>
                <mxCell id="1" parent="0"/>
                <mxCell id="jwrptqtF_TNbQkGZeMLh-1" value="" style="rounded=0;whiteSpace=wrap;html=1;" parent="1" vertex="1">
                    <mxGeometry x="210" y="80" width="320" height="420" as="geometry"/>
                </mxCell>
                <mxCell id="jwrptqtF_TNbQkGZeMLh-2" value="" style="edgeStyle=none;html=1;" parent="1" source="jwrptqtF_TNbQkGZeMLh-3" target="jwrptqtF_TNbQkGZeMLh-6" edge="1">
                    <mxGeometry relative="1" as="geometry"/>
                </mxCell>
                <mxCell id="jwrptqtF_TNbQkGZeMLh-3" value="应用程序" style="rounded=0;whiteSpace=wrap;html=1;" parent="1" vertex="1">
                    <mxGeometry x="240" y="130" width="80" height="40" as="geometry"/>
                </mxCell>
                <mxCell id="jwrptqtF_TNbQkGZeMLh-4" value="字符设备操作硬件" style="text;html=1;strokeColor=none;fillColor=none;align=center;verticalAlign=middle;whiteSpace=wrap;rounded=0;" parent="1" vertex="1">
                    <mxGeometry x="250" y="90" width="60" height="30" as="geometry"/>
                </mxCell>
                <mxCell id="jwrptqtF_TNbQkGZeMLh-5" value="" style="edgeStyle=none;html=1;" parent="1" source="jwrptqtF_TNbQkGZeMLh-6" target="jwrptqtF_TNbQkGZeMLh-8" edge="1">
                    <mxGeometry relative="1" as="geometry"/>
                </mxCell>
                <mxCell id="jwrptqtF_TNbQkGZeMLh-6" value="设备文件&lt;br&gt;/dev/xxx" style="rounded=0;whiteSpace=wrap;html=1;" parent="1" vertex="1">
                    <mxGeometry x="240" y="210" width="80" height="40" as="geometry"/>
                </mxCell>
                <mxCell id="jwrptqtF_TNbQkGZeMLh-7" style="edgeStyle=none;html=1;entryX=0.5;entryY=0;entryDx=0;entryDy=0;" parent="1" source="jwrptqtF_TNbQkGZeMLh-8" target="jwrptqtF_TNbQkGZeMLh-10" edge="1">
                    <mxGeometry relative="1" as="geometry"/>
                </mxCell>
                <mxCell id="jwrptqtF_TNbQkGZeMLh-8" value="字符设备驱动操作接口" style="rounded=0;whiteSpace=wrap;html=1;" parent="1" vertex="1">
                    <mxGeometry x="240" y="290" width="80" height="40" as="geometry"/>
                </mxCell>
                <mxCell id="jwrptqtF_TNbQkGZeMLh-9" style="edgeStyle=none;html=1;entryX=0.5;entryY=0;entryDx=0;entryDy=0;" parent="1" source="jwrptqtF_TNbQkGZeMLh-10" target="jwrptqtF_TNbQkGZeMLh-11" edge="1">
                    <mxGeometry relative="1" as="geometry"/>
                </mxCell>
                <mxCell id="jwrptqtF_TNbQkGZeMLh-10" value="设备硬件访问接口" style="rounded=0;whiteSpace=wrap;html=1;" parent="1" vertex="1">
                    <mxGeometry x="320" y="370" width="80" height="40" as="geometry"/>
                </mxCell>
                <mxCell id="jwrptqtF_TNbQkGZeMLh-11" value="设备硬件" style="rounded=0;whiteSpace=wrap;html=1;" parent="1" vertex="1">
                    <mxGeometry x="320" y="450" width="80" height="40" as="geometry"/>
                </mxCell>
                <mxCell id="jwrptqtF_TNbQkGZeMLh-12" value="IIO设备框架操作硬件" style="text;html=1;strokeColor=none;fillColor=none;align=center;verticalAlign=middle;whiteSpace=wrap;rounded=0;" parent="1" vertex="1">
                    <mxGeometry x="400" y="90" width="80" height="30" as="geometry"/>
                </mxCell>
                <mxCell id="jwrptqtF_TNbQkGZeMLh-13" value="" style="edgeStyle=none;html=1;" parent="1" source="jwrptqtF_TNbQkGZeMLh-14" target="jwrptqtF_TNbQkGZeMLh-16" edge="1">
                    <mxGeometry relative="1" as="geometry"/>
                </mxCell>
                <mxCell id="jwrptqtF_TNbQkGZeMLh-14" value="应用程序" style="rounded=0;whiteSpace=wrap;html=1;" parent="1" vertex="1">
                    <mxGeometry x="400" y="130" width="80" height="40" as="geometry"/>
                </mxCell>
                <mxCell id="jwrptqtF_TNbQkGZeMLh-15" value="" style="edgeStyle=none;html=1;" parent="1" source="jwrptqtF_TNbQkGZeMLh-16" target="jwrptqtF_TNbQkGZeMLh-18" edge="1">
                    <mxGeometry relative="1" as="geometry"/>
                </mxCell>
                <mxCell id="jwrptqtF_TNbQkGZeMLh-16" value="iio资源文件&lt;br&gt;/sys/../iio/xx" style="rounded=0;whiteSpace=wrap;html=1;" parent="1" vertex="1">
                    <mxGeometry x="400" y="210" width="80" height="40" as="geometry"/>
                </mxCell>
                <mxCell id="jwrptqtF_TNbQkGZeMLh-17" style="edgeStyle=none;html=1;entryX=0.5;entryY=0;entryDx=0;entryDy=0;" parent="1" source="jwrptqtF_TNbQkGZeMLh-18" target="jwrptqtF_TNbQkGZeMLh-10" edge="1">
                    <mxGeometry relative="1" as="geometry"/>
                </mxCell>
                <mxCell id="jwrptqtF_TNbQkGZeMLh-18" value="iio框架驱动操作接口" style="rounded=0;whiteSpace=wrap;html=1;" parent="1" vertex="1">
                    <mxGeometry x="400" y="290" width="80" height="40" as="geometry"/>
                </mxCell>
                <mxCell id="jwrptqtF_TNbQkGZeMLh-19" value="" style="endArrow=none;dashed=1;html=1;entryX=0.998;entryY=0.453;entryDx=0;entryDy=0;entryPerimeter=0;" parent="1" target="jwrptqtF_TNbQkGZeMLh-1" edge="1">
                    <mxGeometry width="50" height="50" relative="1" as="geometry">
                        <mxPoint x="210" y="270" as="sourcePoint"/>
                        <mxPoint x="525" y="270" as="targetPoint"/>
                    </mxGeometry>
                </mxCell>
                <mxCell id="jwrptqtF_TNbQkGZeMLh-20" value="" style="endArrow=none;dashed=1;html=1;entryX=0.997;entryY=0.834;entryDx=0;entryDy=0;entryPerimeter=0;" parent="1" target="jwrptqtF_TNbQkGZeMLh-1" edge="1">
                    <mxGeometry width="50" height="50" relative="1" as="geometry">
                        <mxPoint x="210" y="430" as="sourcePoint"/>
                        <mxPoint x="525" y="430" as="targetPoint"/>
                    </mxGeometry>
                </mxCell>
                <mxCell id="jwrptqtF_TNbQkGZeMLh-21" value="应用" style="text;html=1;strokeColor=none;fillColor=none;align=center;verticalAlign=middle;whiteSpace=wrap;rounded=0;" parent="1" vertex="1">
                    <mxGeometry x="480" y="130" width="40" height="30" as="geometry"/>
                </mxCell>
                <mxCell id="jwrptqtF_TNbQkGZeMLh-22" value="内核和驱动" style="text;html=1;strokeColor=none;fillColor=none;align=center;verticalAlign=middle;whiteSpace=wrap;rounded=0;" parent="1" vertex="1">
                    <mxGeometry x="450" y="350" width="70" height="30" as="geometry"/>
                </mxCell>
                <mxCell id="jwrptqtF_TNbQkGZeMLh-23" value="物理设备" style="text;html=1;strokeColor=none;fillColor=none;align=center;verticalAlign=middle;whiteSpace=wrap;rounded=0;" parent="1" vertex="1">
                    <mxGeometry x="450" y="450" width="70" height="30" as="geometry"/>
                </mxCell>
            </root>
        </mxGraphModel>
    </diagram>
    <diagram id="a1ob1ZxN3Jhb_qSxZnOH" name="10.regmap">
        <mxGraphModel dx="917" dy="-10554" grid="1" gridSize="10" guides="1" tooltips="1" connect="1" arrows="1" fold="1" page="1" pageScale="1" pageWidth="850" pageHeight="1100" math="0" shadow="0">
            <root>
                <mxCell id="0"/>
                <mxCell id="1" parent="0"/>
                <mxCell id="pDKWzZFZ-IOLAerBSusS-1" value="" style="rounded=0;whiteSpace=wrap;html=1;fontSize=12;" parent="1" vertex="1">
                    <mxGeometry x="35" y="11240" width="780" height="690" as="geometry"/>
                </mxCell>
                <mxCell id="pDKWzZFZ-IOLAerBSusS-2" style="edgeStyle=none;html=1;fontSize=12;startArrow=none;startFill=0;endArrow=classic;endFill=1;" parent="1" source="pDKWzZFZ-IOLAerBSusS-3" target="pDKWzZFZ-IOLAerBSusS-5" edge="1">
                    <mxGeometry relative="1" as="geometry"/>
                </mxCell>
                <mxCell id="pDKWzZFZ-IOLAerBSusS-3" value="driver" style="rounded=0;whiteSpace=wrap;html=1;fontSize=12;" parent="1" vertex="1">
                    <mxGeometry x="240" y="11600" width="160" height="40" as="geometry"/>
                </mxCell>
                <mxCell id="pDKWzZFZ-IOLAerBSusS-4" style="edgeStyle=none;html=1;fontSize=12;startArrow=none;startFill=0;endArrow=classic;endFill=1;entryX=0.5;entryY=0;entryDx=0;entryDy=0;" parent="1" source="pDKWzZFZ-IOLAerBSusS-5" target="pDKWzZFZ-IOLAerBSusS-7" edge="1">
                    <mxGeometry relative="1" as="geometry">
                        <mxPoint x="320" y="11760" as="targetPoint"/>
                    </mxGeometry>
                </mxCell>
                <mxCell id="pDKWzZFZ-IOLAerBSusS-5" value="&lt;b&gt;regmap框架&lt;/b&gt;" style="rounded=0;whiteSpace=wrap;html=1;fontSize=12;" parent="1" vertex="1">
                    <mxGeometry x="240" y="11680" width="160" height="40" as="geometry"/>
                </mxCell>
                <mxCell id="pDKWzZFZ-IOLAerBSusS-6" style="edgeStyle=none;html=1;entryX=0.5;entryY=0;entryDx=0;entryDy=0;fontSize=12;startArrow=none;startFill=0;endArrow=classic;endFill=1;" parent="1" source="pDKWzZFZ-IOLAerBSusS-7" target="pDKWzZFZ-IOLAerBSusS-18" edge="1">
                    <mxGeometry relative="1" as="geometry"/>
                </mxCell>
                <mxCell id="pDKWzZFZ-IOLAerBSusS-7" value="接口(i2c, spi, mmio, spmi, mdio等)" style="rounded=0;whiteSpace=wrap;html=1;fontSize=12;" parent="1" vertex="1">
                    <mxGeometry x="220" y="11760" width="200" height="50" as="geometry"/>
                </mxCell>
                <mxCell id="pDKWzZFZ-IOLAerBSusS-8" style="edgeStyle=none;html=1;entryX=0.5;entryY=0;entryDx=0;entryDy=0;fontSize=12;startArrow=none;startFill=0;endArrow=classic;endFill=1;" parent="1" source="pDKWzZFZ-IOLAerBSusS-9" target="pDKWzZFZ-IOLAerBSusS-18" edge="1">
                    <mxGeometry relative="1" as="geometry"/>
                </mxCell>
                <mxCell id="pDKWzZFZ-IOLAerBSusS-9" value="device" style="rounded=0;whiteSpace=wrap;html=1;fontSize=12;" parent="1" vertex="1">
                    <mxGeometry x="621" y="11600" width="120" height="40" as="geometry"/>
                </mxCell>
                <mxCell id="pDKWzZFZ-IOLAerBSusS-10" value="" style="shape=flexArrow;endArrow=classic;startArrow=classic;html=1;fontSize=12;entryX=0.5;entryY=1;entryDx=0;entryDy=0;" parent="1" target="pDKWzZFZ-IOLAerBSusS-21" edge="1">
                    <mxGeometry width="100" height="100" relative="1" as="geometry">
                        <mxPoint x="504" y="11770" as="sourcePoint"/>
                        <mxPoint x="510" y="11430" as="targetPoint"/>
                    </mxGeometry>
                </mxCell>
                <mxCell id="pDKWzZFZ-IOLAerBSusS-11" value="" style="endArrow=none;startArrow=classic;html=1;exitX=0.5;exitY=0;exitDx=0;exitDy=0;startFill=1;endFill=0;fontSize=12;" parent="1" source="pDKWzZFZ-IOLAerBSusS-3" edge="1">
                    <mxGeometry width="50" height="50" relative="1" as="geometry">
                        <mxPoint x="300" y="11620" as="sourcePoint"/>
                        <mxPoint x="500" y="11530" as="targetPoint"/>
                    </mxGeometry>
                </mxCell>
                <mxCell id="pDKWzZFZ-IOLAerBSusS-12" value="" style="endArrow=classic;html=1;entryX=0.5;entryY=0;entryDx=0;entryDy=0;fontSize=12;" parent="1" target="pDKWzZFZ-IOLAerBSusS-9" edge="1">
                    <mxGeometry width="50" height="50" relative="1" as="geometry">
                        <mxPoint x="510" y="11530" as="sourcePoint"/>
                        <mxPoint x="670" y="11630" as="targetPoint"/>
                    </mxGeometry>
                </mxCell>
                <mxCell id="pDKWzZFZ-IOLAerBSusS-13" value="总线" style="text;html=1;strokeColor=none;fillColor=none;align=center;verticalAlign=middle;whiteSpace=wrap;rounded=0;fontSize=12;" parent="1" vertex="1">
                    <mxGeometry x="514" y="11470" width="42" height="30" as="geometry"/>
                </mxCell>
                <mxCell id="pDKWzZFZ-IOLAerBSusS-14" style="edgeStyle=none;html=1;entryX=0.5;entryY=0;entryDx=0;entryDy=0;startArrow=none;startFill=0;endArrow=classic;endFill=1;fontSize=12;" parent="1" source="pDKWzZFZ-IOLAerBSusS-15" target="pDKWzZFZ-IOLAerBSusS-9" edge="1">
                    <mxGeometry relative="1" as="geometry"/>
                </mxCell>
                <mxCell id="pDKWzZFZ-IOLAerBSusS-15" value="device tree" style="rounded=0;whiteSpace=wrap;html=1;fontSize=12;" parent="1" vertex="1">
                    <mxGeometry x="619" y="11440" width="122" height="40" as="geometry"/>
                </mxCell>
                <mxCell id="pDKWzZFZ-IOLAerBSusS-16" style="edgeStyle=none;html=1;startArrow=none;startFill=0;endArrow=classic;endFill=1;fontSize=12;" parent="1" source="pDKWzZFZ-IOLAerBSusS-17" target="pDKWzZFZ-IOLAerBSusS-3" edge="1">
                    <mxGeometry relative="1" as="geometry">
                        <mxPoint x="350" y="11600" as="targetPoint"/>
                    </mxGeometry>
                </mxCell>
                <mxCell id="pDKWzZFZ-IOLAerBSusS-17" value="&lt;div style=&quot;background-color: rgb(255, 255, 255); font-size: 12px; line-height: 19px;&quot;&gt;&lt;span style=&quot;color: rgb(0, 16, 128); font-size: 12px;&quot;&gt;rtc_dev_fops&lt;/span&gt;&lt;br style=&quot;font-size: 12px;&quot;&gt;&lt;/div&gt;" style="rounded=0;whiteSpace=wrap;html=1;fontFamily=Helvetica;fontSize=12;fontColor=#000000;" parent="1" vertex="1">
                    <mxGeometry x="240" y="11520" width="160" height="40" as="geometry"/>
                </mxCell>
                <mxCell id="pDKWzZFZ-IOLAerBSusS-18" value="器件和模块" style="rounded=0;whiteSpace=wrap;html=1;fontSize=12;" parent="1" vertex="1">
                    <mxGeometry x="369" y="11870" width="252" height="40" as="geometry"/>
                </mxCell>
                <mxCell id="pDKWzZFZ-IOLAerBSusS-19" value="" style="endArrow=none;dashed=1;html=1;fontSize=12;" parent="1" edge="1">
                    <mxGeometry width="50" height="50" relative="1" as="geometry">
                        <mxPoint x="45" y="11830" as="sourcePoint"/>
                        <mxPoint x="800" y="11830" as="targetPoint"/>
                    </mxGeometry>
                </mxCell>
                <mxCell id="pDKWzZFZ-IOLAerBSusS-20" value="character" style="rounded=0;whiteSpace=wrap;html=1;" parent="1" vertex="1">
                    <mxGeometry x="140" y="11340" width="120" height="40" as="geometry"/>
                </mxCell>
                <mxCell id="pDKWzZFZ-IOLAerBSusS-21" value="/sys/bus/[device/bus]" style="rounded=0;whiteSpace=wrap;html=1;" parent="1" vertex="1">
                    <mxGeometry x="445" y="11340" width="120" height="40" as="geometry"/>
                </mxCell>
                <mxCell id="pDKWzZFZ-IOLAerBSusS-22" style="edgeStyle=none;html=1;fontSize=12;startArrow=none;startFill=0;endArrow=classic;endFill=1;" parent="1" source="pDKWzZFZ-IOLAerBSusS-23" target="pDKWzZFZ-IOLAerBSusS-15" edge="1">
                    <mxGeometry relative="1" as="geometry"/>
                </mxCell>
                <mxCell id="pDKWzZFZ-IOLAerBSusS-23" value="&lt;div style=&quot;background-color: rgb(255, 255, 255); font-size: 12px; line-height: 19px;&quot;&gt;&lt;span style=&quot;background-color: rgb(251, 251, 251);&quot;&gt;/proc/deivce-tree/[node]&lt;/span&gt;&lt;br&gt;&lt;/div&gt;" style="rounded=0;whiteSpace=wrap;html=1;fontColor=#000000;fontFamily=Helvetica;fontSize=12;" parent="1" vertex="1">
                    <mxGeometry x="601" y="11340" width="160" height="40" as="geometry"/>
                </mxCell>
                <mxCell id="pDKWzZFZ-IOLAerBSusS-24" value="/proc/driver/[dev]&lt;br&gt;/sys/class/[dev]" style="rounded=0;whiteSpace=wrap;html=1;" parent="1" vertex="1">
                    <mxGeometry x="290" y="11340" width="120" height="40" as="geometry"/>
                </mxCell>
                <mxCell id="pDKWzZFZ-IOLAerBSusS-25" value="interface" style="rounded=0;whiteSpace=wrap;html=1;" parent="1" vertex="1">
                    <mxGeometry x="240" y="11440" width="160" height="40" as="geometry"/>
                </mxCell>
                <mxCell id="pDKWzZFZ-IOLAerBSusS-26" style="edgeStyle=none;html=1;entryX=0.5;entryY=0;entryDx=0;entryDy=0;fontSize=12;startArrow=none;startFill=0;endArrow=classic;endFill=1;" parent="1" source="pDKWzZFZ-IOLAerBSusS-27" target="pDKWzZFZ-IOLAerBSusS-20" edge="1">
                    <mxGeometry relative="1" as="geometry"/>
                </mxCell>
                <mxCell id="pDKWzZFZ-IOLAerBSusS-27" value="open/ioctl/close" style="rounded=0;whiteSpace=wrap;html=1;" parent="1" vertex="1">
                    <mxGeometry x="140" y="11260" width="120" height="40" as="geometry"/>
                </mxCell>
                <mxCell id="pDKWzZFZ-IOLAerBSusS-28" value="" style="endArrow=none;dashed=1;html=1;fontSize=12;" parent="1" edge="1">
                    <mxGeometry width="50" height="50" relative="1" as="geometry">
                        <mxPoint x="45" y="11410" as="sourcePoint"/>
                        <mxPoint x="795" y="11410" as="targetPoint"/>
                    </mxGeometry>
                </mxCell>
                <mxCell id="pDKWzZFZ-IOLAerBSusS-29" value="" style="endArrow=classic;html=1;fontSize=12;exitX=0.5;exitY=1;exitDx=0;exitDy=0;entryX=0.5;entryY=0;entryDx=0;entryDy=0;" parent="1" source="pDKWzZFZ-IOLAerBSusS-25" target="pDKWzZFZ-IOLAerBSusS-17" edge="1">
                    <mxGeometry width="50" height="50" relative="1" as="geometry">
                        <mxPoint x="510" y="11550" as="sourcePoint"/>
                        <mxPoint x="350" y="11530" as="targetPoint"/>
                    </mxGeometry>
                </mxCell>
                <mxCell id="pDKWzZFZ-IOLAerBSusS-30" value="" style="endArrow=classic;html=1;fontSize=12;exitX=0.5;exitY=1;exitDx=0;exitDy=0;entryX=0.5;entryY=0;entryDx=0;entryDy=0;" parent="1" source="pDKWzZFZ-IOLAerBSusS-24" target="pDKWzZFZ-IOLAerBSusS-25" edge="1">
                    <mxGeometry width="50" height="50" relative="1" as="geometry">
                        <mxPoint x="510" y="11550" as="sourcePoint"/>
                        <mxPoint x="560" y="11500" as="targetPoint"/>
                    </mxGeometry>
                </mxCell>
                <mxCell id="pDKWzZFZ-IOLAerBSusS-31" value="" style="endArrow=classic;html=1;fontSize=12;exitX=0.5;exitY=1;exitDx=0;exitDy=0;entryX=0.5;entryY=0;entryDx=0;entryDy=0;" parent="1" source="pDKWzZFZ-IOLAerBSusS-20" target="pDKWzZFZ-IOLAerBSusS-25" edge="1">
                    <mxGeometry width="50" height="50" relative="1" as="geometry">
                        <mxPoint x="510" y="11550" as="sourcePoint"/>
                        <mxPoint x="560" y="11500" as="targetPoint"/>
                    </mxGeometry>
                </mxCell>
                <mxCell id="pDKWzZFZ-IOLAerBSusS-32" value="应用层" style="text;html=1;strokeColor=none;fillColor=none;align=center;verticalAlign=middle;whiteSpace=wrap;rounded=0;fontSize=14;" parent="1" vertex="1">
                    <mxGeometry x="55" y="11330" width="60" height="30" as="geometry"/>
                </mxCell>
                <mxCell id="pDKWzZFZ-IOLAerBSusS-33" value="内核层" style="text;html=1;strokeColor=none;fillColor=none;align=center;verticalAlign=middle;whiteSpace=wrap;rounded=0;fontSize=14;" parent="1" vertex="1">
                    <mxGeometry x="65" y="11560" width="60" height="30" as="geometry"/>
                </mxCell>
                <mxCell id="pDKWzZFZ-IOLAerBSusS-34" value="物理层" style="text;html=1;strokeColor=none;fillColor=none;align=center;verticalAlign=middle;whiteSpace=wrap;rounded=0;fontSize=14;" parent="1" vertex="1">
                    <mxGeometry x="65" y="11880" width="60" height="30" as="geometry"/>
                </mxCell>
                <mxCell id="pDKWzZFZ-IOLAerBSusS-35" value="remap驱动框架" style="text;html=1;align=center;verticalAlign=middle;whiteSpace=wrap;rounded=0;fontSize=20;" parent="1" vertex="1">
                    <mxGeometry x="49.25" y="11081" width="170.5" height="82" as="geometry"/>
                </mxCell>
                <mxCell id="pDKWzZFZ-IOLAerBSusS-36" value="" style="rounded=0;whiteSpace=wrap;html=1;fillColor=#E6E6E6;" parent="1" vertex="1">
                    <mxGeometry x="166" y="12300" width="435" height="370" as="geometry"/>
                </mxCell>
                <mxCell id="pDKWzZFZ-IOLAerBSusS-37" value="物理总线" style="rounded=0;whiteSpace=wrap;html=1;align=center;horizontal=1;verticalAlign=top;fillColor=#99FFFF;" parent="1" vertex="1">
                    <mxGeometry x="171" y="12530" width="420" height="130" as="geometry"/>
                </mxCell>
                <mxCell id="pDKWzZFZ-IOLAerBSusS-38" value="i2c" style="rounded=0;whiteSpace=wrap;html=1;fillColor=#FFFF66;" parent="1" vertex="1">
                    <mxGeometry x="181" y="12570" width="90" height="40" as="geometry"/>
                </mxCell>
                <mxCell id="pDKWzZFZ-IOLAerBSusS-39" value="spi" style="rounded=0;whiteSpace=wrap;html=1;fillColor=#FFFF66;" parent="1" vertex="1">
                    <mxGeometry x="281" y="12570" width="90" height="40" as="geometry"/>
                </mxCell>
                <mxCell id="pDKWzZFZ-IOLAerBSusS-40" value="mmio" style="rounded=0;whiteSpace=wrap;html=1;fillColor=#FFFF66;" parent="1" vertex="1">
                    <mxGeometry x="386" y="12570" width="90" height="40" as="geometry"/>
                </mxCell>
                <mxCell id="pDKWzZFZ-IOLAerBSusS-41" value="mdio" style="rounded=0;whiteSpace=wrap;html=1;fillColor=#FFFF66;" parent="1" vertex="1">
                    <mxGeometry x="491" y="12570" width="90" height="40" as="geometry"/>
                </mxCell>
                <mxCell id="pDKWzZFZ-IOLAerBSusS-42" value="regmap core" style="rounded=0;whiteSpace=wrap;html=1;fillColor=#66FFFF;" parent="1" vertex="1">
                    <mxGeometry x="171" y="12450" width="420" height="60" as="geometry"/>
                </mxCell>
                <mxCell id="pDKWzZFZ-IOLAerBSusS-43" value="regmap API函数" style="rounded=0;whiteSpace=wrap;html=1;verticalAlign=top;fillColor=#66FFFF;" parent="1" vertex="1">
                    <mxGeometry x="171" y="12310" width="420" height="120" as="geometry"/>
                </mxCell>
                <mxCell id="pDKWzZFZ-IOLAerBSusS-44" value="regmap_read" style="rounded=0;whiteSpace=wrap;html=1;fillColor=#FFFF66;" parent="1" vertex="1">
                    <mxGeometry x="181" y="12340" width="80" height="40" as="geometry"/>
                </mxCell>
                <mxCell id="pDKWzZFZ-IOLAerBSusS-45" value="......" style="rounded=0;whiteSpace=wrap;html=1;fillColor=#FFFF66;" parent="1" vertex="1">
                    <mxGeometry x="181" y="12620" width="400" height="30" as="geometry"/>
                </mxCell>
                <mxCell id="pDKWzZFZ-IOLAerBSusS-46" value="......" style="rounded=0;whiteSpace=wrap;html=1;fillColor=#FFFF66;" parent="1" vertex="1">
                    <mxGeometry x="181" y="12390" width="400" height="30" as="geometry"/>
                </mxCell>
                <mxCell id="pDKWzZFZ-IOLAerBSusS-47" value="regmap_write" style="rounded=0;whiteSpace=wrap;html=1;fillColor=#FFFF66;" parent="1" vertex="1">
                    <mxGeometry x="266" y="12340" width="80" height="40" as="geometry"/>
                </mxCell>
                <mxCell id="pDKWzZFZ-IOLAerBSusS-48" value="regmap_bulk_read" style="rounded=0;whiteSpace=wrap;html=1;fillColor=#FFFF66;" parent="1" vertex="1">
                    <mxGeometry x="356" y="12340" width="110" height="40" as="geometry"/>
                </mxCell>
                <mxCell id="pDKWzZFZ-IOLAerBSusS-49" value="regmap_bulk_read" style="rounded=0;whiteSpace=wrap;html=1;fillColor=#FFFF66;" parent="1" vertex="1">
                    <mxGeometry x="471" y="12340" width="110" height="40" as="geometry"/>
                </mxCell>
            </root>
        </mxGraphModel>
    </diagram>
    <diagram id="11dSMCaiopFoq7h-x_WD" name="11.rtc">
        <mxGraphModel dx="917" dy="-9454" grid="1" gridSize="10" guides="1" tooltips="1" connect="1" arrows="1" fold="1" page="1" pageScale="1" pageWidth="850" pageHeight="1100" math="0" shadow="0">
            <root>
                <mxCell id="0"/>
                <mxCell id="1" parent="0"/>
                <mxCell id="sGXsDZWfiuj0wyXNgYPT-1" value="" style="rounded=0;whiteSpace=wrap;html=1;fontFamily=Helvetica;fontSize=12;fontColor=#000000;" parent="1" vertex="1">
                    <mxGeometry x="20" y="10206" width="780" height="560" as="geometry"/>
                </mxCell>
                <mxCell id="sGXsDZWfiuj0wyXNgYPT-2" style="edgeStyle=none;html=1;fontFamily=Helvetica;fontSize=12;fontColor=#000000;startArrow=none;startFill=0;endArrow=classic;endFill=1;" parent="1" source="sGXsDZWfiuj0wyXNgYPT-3" target="sGXsDZWfiuj0wyXNgYPT-5" edge="1">
                    <mxGeometry relative="1" as="geometry"/>
                </mxCell>
                <mxCell id="sGXsDZWfiuj0wyXNgYPT-3" value="open/ioctl/close" style="rounded=0;whiteSpace=wrap;html=1;" parent="1" vertex="1">
                    <mxGeometry x="110" y="10216" width="120" height="40" as="geometry"/>
                </mxCell>
                <mxCell id="sGXsDZWfiuj0wyXNgYPT-4" style="edgeStyle=none;html=1;fontFamily=Helvetica;fontSize=12;fontColor=#000000;startArrow=none;startFill=0;endArrow=classic;endFill=1;" parent="1" source="sGXsDZWfiuj0wyXNgYPT-5" target="sGXsDZWfiuj0wyXNgYPT-9" edge="1">
                    <mxGeometry relative="1" as="geometry"/>
                </mxCell>
                <mxCell id="sGXsDZWfiuj0wyXNgYPT-5" value="/dev/rtcX" style="rounded=0;whiteSpace=wrap;html=1;" parent="1" vertex="1">
                    <mxGeometry x="110" y="10286" width="120" height="40" as="geometry"/>
                </mxCell>
                <mxCell id="sGXsDZWfiuj0wyXNgYPT-6" style="edgeStyle=none;html=1;entryX=0.5;entryY=0;entryDx=0;entryDy=0;exitX=0.5;exitY=1;exitDx=0;exitDy=0;" parent="1" source="sGXsDZWfiuj0wyXNgYPT-7" target="sGXsDZWfiuj0wyXNgYPT-11" edge="1">
                    <mxGeometry relative="1" as="geometry"/>
                </mxCell>
                <mxCell id="sGXsDZWfiuj0wyXNgYPT-7" value="/proc/driver/rtc&lt;br&gt;/sys/class/rtc/rtc0/*" style="rounded=0;whiteSpace=wrap;html=1;" parent="1" vertex="1">
                    <mxGeometry x="270" y="10286" width="120" height="40" as="geometry"/>
                </mxCell>
                <mxCell id="sGXsDZWfiuj0wyXNgYPT-8" style="edgeStyle=none;html=1;entryX=0.5;entryY=0;entryDx=0;entryDy=0;exitX=0.5;exitY=1;exitDx=0;exitDy=0;" parent="1" source="sGXsDZWfiuj0wyXNgYPT-9" target="sGXsDZWfiuj0wyXNgYPT-11" edge="1">
                    <mxGeometry relative="1" as="geometry"/>
                </mxCell>
                <mxCell id="sGXsDZWfiuj0wyXNgYPT-9" value="character" style="rounded=0;whiteSpace=wrap;html=1;" parent="1" vertex="1">
                    <mxGeometry x="110" y="10356" width="120" height="40" as="geometry"/>
                </mxCell>
                <mxCell id="sGXsDZWfiuj0wyXNgYPT-10" style="edgeStyle=none;html=1;entryX=0.5;entryY=0;entryDx=0;entryDy=0;fontFamily=Helvetica;fontSize=12;fontColor=#000000;startArrow=none;startFill=0;endArrow=classic;endFill=1;" parent="1" source="sGXsDZWfiuj0wyXNgYPT-11" target="sGXsDZWfiuj0wyXNgYPT-12" edge="1">
                    <mxGeometry relative="1" as="geometry"/>
                </mxCell>
                <mxCell id="sGXsDZWfiuj0wyXNgYPT-11" value="interface" style="rounded=0;whiteSpace=wrap;html=1;fontFamily=Helvetica;fontSize=12;" parent="1" vertex="1">
                    <mxGeometry x="110" y="10436" width="300" height="40" as="geometry"/>
                </mxCell>
                <mxCell id="sGXsDZWfiuj0wyXNgYPT-12" value="&lt;div style=&quot;background-color: rgb(255, 255, 255); font-size: 12px; line-height: 19px;&quot;&gt;&lt;span style=&quot;color: rgb(0, 16, 128);&quot;&gt;rtc_dev_fops&lt;/span&gt;&lt;br&gt;&lt;/div&gt;" style="rounded=0;whiteSpace=wrap;html=1;fontFamily=Helvetica;fontSize=12;fontColor=#000000;" parent="1" vertex="1">
                    <mxGeometry x="200" y="10521" width="120" height="40" as="geometry"/>
                </mxCell>
                <mxCell id="sGXsDZWfiuj0wyXNgYPT-13" value="&lt;div style=&quot;background-color: rgb(255, 255, 255); font-size: 12px; line-height: 19px;&quot;&gt;&lt;span style=&quot;font-size: 12px;&quot;&gt;dirver&lt;/span&gt;&lt;/div&gt;&lt;div style=&quot;background-color: rgb(255, 255, 255); font-size: 12px; line-height: 19px;&quot;&gt;&lt;div style=&quot;line-height: 19px; font-size: 12px;&quot;&gt;read_time/write_time&lt;/div&gt;&lt;/div&gt;" style="rounded=0;whiteSpace=wrap;html=1;fontColor=#000000;fontFamily=Helvetica;fontSize=12;" parent="1" vertex="1">
                    <mxGeometry x="155" y="10606" width="210" height="40" as="geometry"/>
                </mxCell>
                <mxCell id="sGXsDZWfiuj0wyXNgYPT-14" value="&lt;div style=&quot;background-color: rgb(255, 255, 255); font-size: 12px; line-height: 19px;&quot;&gt;deivce&lt;/div&gt;" style="rounded=0;whiteSpace=wrap;html=1;fontColor=#000000;fontFamily=Helvetica;fontSize=12;" parent="1" vertex="1">
                    <mxGeometry x="590" y="10596" width="160" height="40" as="geometry"/>
                </mxCell>
                <mxCell id="sGXsDZWfiuj0wyXNgYPT-15" value="&lt;div style=&quot;background-color: rgb(255, 255, 255); font-size: 12px; line-height: 19px;&quot;&gt;deivce-tree&lt;/div&gt;" style="rounded=0;whiteSpace=wrap;html=1;fontColor=#000000;fontFamily=Helvetica;fontSize=12;" parent="1" vertex="1">
                    <mxGeometry x="590" y="10516" width="160" height="40" as="geometry"/>
                </mxCell>
                <mxCell id="sGXsDZWfiuj0wyXNgYPT-16" value="&lt;div style=&quot;background-color: rgb(255, 255, 255); font-size: 12px; line-height: 19px;&quot;&gt;&lt;span style=&quot;background-color: rgb(251, 251, 251);&quot;&gt;/proc/deivce-tree/[node]&lt;/span&gt;&lt;br&gt;&lt;/div&gt;" style="rounded=0;whiteSpace=wrap;html=1;fontColor=#000000;fontFamily=Helvetica;fontSize=12;" parent="1" vertex="1">
                    <mxGeometry x="590" y="10286" width="160" height="40" as="geometry"/>
                </mxCell>
                <mxCell id="sGXsDZWfiuj0wyXNgYPT-17" value="" style="shape=flexArrow;endArrow=none;startArrow=classic;html=1;fontFamily=Helvetica;fontSize=12;fontColor=#000000;endFill=0;entryX=0.5;entryY=1;entryDx=0;entryDy=0;exitX=0.5;exitY=0;exitDx=0;exitDy=0;" parent="1" source="sGXsDZWfiuj0wyXNgYPT-20" target="sGXsDZWfiuj0wyXNgYPT-18" edge="1">
                    <mxGeometry width="100" height="100" relative="1" as="geometry">
                        <mxPoint x="490" y="10706" as="sourcePoint"/>
                        <mxPoint x="489.5" y="10416" as="targetPoint"/>
                    </mxGeometry>
                </mxCell>
                <mxCell id="sGXsDZWfiuj0wyXNgYPT-18" value="i2c bus" style="text;html=1;strokeColor=none;fillColor=none;align=center;verticalAlign=middle;whiteSpace=wrap;rounded=0;fontFamily=Helvetica;fontSize=12;fontColor=#000000;" parent="1" vertex="1">
                    <mxGeometry x="460" y="10356" width="60" height="30" as="geometry"/>
                </mxCell>
                <mxCell id="sGXsDZWfiuj0wyXNgYPT-19" value="/sys/bus/i2c/device&lt;br&gt;/[addr]" style="rounded=0;whiteSpace=wrap;html=1;" parent="1" vertex="1">
                    <mxGeometry x="430" y="10286" width="120" height="40" as="geometry"/>
                </mxCell>
                <mxCell id="sGXsDZWfiuj0wyXNgYPT-20" value="PCF8563 RTC芯片" style="rounded=0;whiteSpace=wrap;html=1;fontFamily=Helvetica;fontSize=12;fontColor=#000000;" parent="1" vertex="1">
                    <mxGeometry x="430" y="10696" width="120" height="60" as="geometry"/>
                </mxCell>
                <mxCell id="sGXsDZWfiuj0wyXNgYPT-21" value="" style="shape=flexArrow;endArrow=classic;startArrow=classic;html=1;fontFamily=Helvetica;fontSize=12;fontColor=#000000;exitX=1;exitY=0.75;exitDx=0;exitDy=0;width=6;" parent="1" source="sGXsDZWfiuj0wyXNgYPT-13" edge="1">
                    <mxGeometry width="100" height="100" relative="1" as="geometry">
                        <mxPoint x="370" y="10646" as="sourcePoint"/>
                        <mxPoint x="480" y="10586" as="targetPoint"/>
                    </mxGeometry>
                </mxCell>
                <mxCell id="sGXsDZWfiuj0wyXNgYPT-22" value="" style="shape=flexArrow;endArrow=classic;startArrow=classic;html=1;fontFamily=Helvetica;fontSize=12;fontColor=#000000;exitX=0;exitY=0.75;exitDx=0;exitDy=0;width=6;" parent="1" source="sGXsDZWfiuj0wyXNgYPT-14" edge="1">
                    <mxGeometry width="100" height="100" relative="1" as="geometry">
                        <mxPoint x="370" y="10676" as="sourcePoint"/>
                        <mxPoint x="500" y="10586" as="targetPoint"/>
                    </mxGeometry>
                </mxCell>
                <mxCell id="sGXsDZWfiuj0wyXNgYPT-23" value="" style="endArrow=none;dashed=1;html=1;fontFamily=Helvetica;fontSize=12;fontColor=#000000;" parent="1" edge="1">
                    <mxGeometry width="50" height="50" relative="1" as="geometry">
                        <mxPoint x="40" y="10666" as="sourcePoint"/>
                        <mxPoint x="800" y="10666" as="targetPoint"/>
                    </mxGeometry>
                </mxCell>
                <mxCell id="sGXsDZWfiuj0wyXNgYPT-24" value="" style="endArrow=classic;startArrow=none;html=1;fontFamily=Helvetica;fontSize=12;fontColor=#000000;exitX=0.5;exitY=1;exitDx=0;exitDy=0;entryX=0.5;entryY=0;entryDx=0;entryDy=0;endFill=1;startFill=0;" parent="1" source="sGXsDZWfiuj0wyXNgYPT-12" target="sGXsDZWfiuj0wyXNgYPT-13" edge="1">
                    <mxGeometry width="50" height="50" relative="1" as="geometry">
                        <mxPoint x="390" y="10586" as="sourcePoint"/>
                        <mxPoint x="440" y="10536" as="targetPoint"/>
                    </mxGeometry>
                </mxCell>
                <mxCell id="sGXsDZWfiuj0wyXNgYPT-25" value="" style="endArrow=classic;html=1;fontFamily=Helvetica;fontSize=12;fontColor=#000000;exitX=0.5;exitY=1;exitDx=0;exitDy=0;entryX=0.5;entryY=0;entryDx=0;entryDy=0;" parent="1" source="sGXsDZWfiuj0wyXNgYPT-19" target="sGXsDZWfiuj0wyXNgYPT-18" edge="1">
                    <mxGeometry width="50" height="50" relative="1" as="geometry">
                        <mxPoint x="390" y="10486" as="sourcePoint"/>
                        <mxPoint x="440" y="10436" as="targetPoint"/>
                    </mxGeometry>
                </mxCell>
                <mxCell id="sGXsDZWfiuj0wyXNgYPT-26" value="" style="endArrow=classic;html=1;fontFamily=Helvetica;fontSize=12;fontColor=#000000;exitX=0.5;exitY=1;exitDx=0;exitDy=0;" parent="1" source="sGXsDZWfiuj0wyXNgYPT-16" target="sGXsDZWfiuj0wyXNgYPT-15" edge="1">
                    <mxGeometry width="50" height="50" relative="1" as="geometry">
                        <mxPoint x="390" y="10486" as="sourcePoint"/>
                        <mxPoint x="440" y="10436" as="targetPoint"/>
                    </mxGeometry>
                </mxCell>
                <mxCell id="sGXsDZWfiuj0wyXNgYPT-27" value="" style="endArrow=classic;html=1;fontFamily=Helvetica;fontSize=12;fontColor=#000000;exitX=0.5;exitY=1;exitDx=0;exitDy=0;entryX=0.5;entryY=0;entryDx=0;entryDy=0;" parent="1" source="sGXsDZWfiuj0wyXNgYPT-15" target="sGXsDZWfiuj0wyXNgYPT-14" edge="1">
                    <mxGeometry width="50" height="50" relative="1" as="geometry">
                        <mxPoint x="390" y="10486" as="sourcePoint"/>
                        <mxPoint x="440" y="10436" as="targetPoint"/>
                    </mxGeometry>
                </mxCell>
                <mxCell id="sGXsDZWfiuj0wyXNgYPT-28" value="" style="endArrow=classic;html=1;fontFamily=Helvetica;fontSize=12;fontColor=#000000;exitX=0.5;exitY=1;exitDx=0;exitDy=0;entryX=0;entryY=0.5;entryDx=0;entryDy=0;" parent="1" source="sGXsDZWfiuj0wyXNgYPT-13" target="sGXsDZWfiuj0wyXNgYPT-20" edge="1">
                    <mxGeometry width="50" height="50" relative="1" as="geometry">
                        <mxPoint x="390" y="10686" as="sourcePoint"/>
                        <mxPoint x="440" y="10636" as="targetPoint"/>
                    </mxGeometry>
                </mxCell>
                <mxCell id="sGXsDZWfiuj0wyXNgYPT-29" value="" style="endArrow=classic;html=1;fontFamily=Helvetica;fontSize=12;fontColor=#000000;entryX=1;entryY=0.5;entryDx=0;entryDy=0;exitX=0.5;exitY=1;exitDx=0;exitDy=0;" parent="1" source="sGXsDZWfiuj0wyXNgYPT-14" target="sGXsDZWfiuj0wyXNgYPT-20" edge="1">
                    <mxGeometry width="50" height="50" relative="1" as="geometry">
                        <mxPoint x="670" y="10676" as="sourcePoint"/>
                        <mxPoint x="720" y="10626" as="targetPoint"/>
                    </mxGeometry>
                </mxCell>
                <mxCell id="sGXsDZWfiuj0wyXNgYPT-30" value="" style="endArrow=none;dashed=1;html=1;fontFamily=Helvetica;fontSize=12;fontColor=#000000;" parent="1" edge="1">
                    <mxGeometry width="50" height="50" relative="1" as="geometry">
                        <mxPoint x="30" y="10336" as="sourcePoint"/>
                        <mxPoint x="790" y="10336" as="targetPoint"/>
                    </mxGeometry>
                </mxCell>
                <mxCell id="sGXsDZWfiuj0wyXNgYPT-31" value="&lt;span style=&quot;font-size: 14px;&quot;&gt;内核层&lt;/span&gt;" style="text;html=1;strokeColor=none;fillColor=none;align=center;verticalAlign=middle;whiteSpace=wrap;rounded=0;fontFamily=Helvetica;fontSize=12;fontColor=#000000;" parent="1" vertex="1">
                    <mxGeometry x="40" y="10526" width="60" height="30" as="geometry"/>
                </mxCell>
                <mxCell id="sGXsDZWfiuj0wyXNgYPT-32" value="应用层" style="text;html=1;strokeColor=none;fillColor=none;align=center;verticalAlign=middle;whiteSpace=wrap;rounded=0;fontSize=14;" parent="1" vertex="1">
                    <mxGeometry x="40" y="10256" width="60" height="30" as="geometry"/>
                </mxCell>
                <mxCell id="sGXsDZWfiuj0wyXNgYPT-33" value="物理层" style="text;html=1;strokeColor=none;fillColor=none;align=center;verticalAlign=middle;whiteSpace=wrap;rounded=0;fontSize=14;" parent="1" vertex="1">
                    <mxGeometry x="40" y="10696" width="60" height="30" as="geometry"/>
                </mxCell>
                <mxCell id="sGXsDZWfiuj0wyXNgYPT-34" value="RTC字符设备框架" style="text;html=1;strokeColor=none;fillColor=none;align=center;verticalAlign=middle;whiteSpace=wrap;rounded=0;" parent="1" vertex="1">
                    <mxGeometry x="550" y="10236" width="110" height="30" as="geometry"/>
                </mxCell>
                <mxCell id="sGXsDZWfiuj0wyXNgYPT-35" value="RTC驱动框架" style="text;html=1;align=center;verticalAlign=middle;whiteSpace=wrap;rounded=0;fontSize=20;" parent="1" vertex="1">
                    <mxGeometry x="42.5" y="10060" width="170.5" height="82" as="geometry"/>
                </mxCell>
            </root>
        </mxGraphModel>
    </diagram>
    <diagram id="Y6BICeShtqrCs4f-uPkM" name="12.pwm">
        <mxGraphModel dx="917" dy="-16054" grid="1" gridSize="10" guides="1" tooltips="1" connect="1" arrows="1" fold="1" page="1" pageScale="1" pageWidth="850" pageHeight="1100" math="0" shadow="0">
            <root>
                <mxCell id="0"/>
                <mxCell id="1" parent="0"/>
                <mxCell id="snQ3fgvoVq1wNDVxWiew-1" value="" style="rounded=0;whiteSpace=wrap;html=1;" parent="1" vertex="1">
                    <mxGeometry x="60.709999999999994" y="16664" width="710" height="580" as="geometry"/>
                </mxCell>
                <mxCell id="snQ3fgvoVq1wNDVxWiew-2" style="edgeStyle=none;html=1;entryX=0.5;entryY=0;entryDx=0;entryDy=0;" parent="1" target="snQ3fgvoVq1wNDVxWiew-4" edge="1">
                    <mxGeometry relative="1" as="geometry">
                        <mxPoint x="580.71" y="16901.5" as="sourcePoint"/>
                    </mxGeometry>
                </mxCell>
                <mxCell id="snQ3fgvoVq1wNDVxWiew-3" style="edgeStyle=none;html=1;entryX=0.5;entryY=0;entryDx=0;entryDy=0;" parent="1" source="snQ3fgvoVq1wNDVxWiew-4" target="snQ3fgvoVq1wNDVxWiew-6" edge="1">
                    <mxGeometry relative="1" as="geometry">
                        <Array as="points">
                            <mxPoint x="460.71" y="16961.5"/>
                        </Array>
                    </mxGeometry>
                </mxCell>
                <mxCell id="snQ3fgvoVq1wNDVxWiew-4" value="pwm&lt;br&gt;subsystem" style="rounded=0;whiteSpace=wrap;html=1;" parent="1" vertex="1">
                    <mxGeometry x="540.71" y="16941.5" width="80" height="40" as="geometry"/>
                </mxCell>
                <mxCell id="snQ3fgvoVq1wNDVxWiew-5" style="edgeStyle=none;html=1;entryX=0.5;entryY=0;entryDx=0;entryDy=0;exitX=0.5;exitY=1;exitDx=0;exitDy=0;" parent="1" source="snQ3fgvoVq1wNDVxWiew-6" target="snQ3fgvoVq1wNDVxWiew-11" edge="1">
                    <mxGeometry relative="1" as="geometry"/>
                </mxCell>
                <mxCell id="snQ3fgvoVq1wNDVxWiew-6" value="pwm&lt;br&gt;&amp;nbsp; provider(driver）" style="rounded=0;whiteSpace=wrap;html=1;" parent="1" vertex="1">
                    <mxGeometry x="410.71" y="17021.5" width="100" height="40" as="geometry"/>
                </mxCell>
                <mxCell id="snQ3fgvoVq1wNDVxWiew-7" style="edgeStyle=none;html=1;exitX=0.5;exitY=0;exitDx=0;exitDy=0;entryX=1;entryY=0.5;entryDx=0;entryDy=0;" parent="1" source="snQ3fgvoVq1wNDVxWiew-8" target="snQ3fgvoVq1wNDVxWiew-4" edge="1">
                    <mxGeometry relative="1" as="geometry">
                        <Array as="points">
                            <mxPoint x="700.71" y="16961.5"/>
                        </Array>
                    </mxGeometry>
                </mxCell>
                <mxCell id="snQ3fgvoVq1wNDVxWiew-8" value="pwm&lt;br&gt;consumer" style="rounded=0;whiteSpace=wrap;html=1;" parent="1" vertex="1">
                    <mxGeometry x="660.71" y="17021.5" width="80" height="40" as="geometry"/>
                </mxCell>
                <mxCell id="snQ3fgvoVq1wNDVxWiew-9" value="pwm0~pwmX" style="rounded=0;whiteSpace=wrap;html=1;" parent="1" vertex="1">
                    <mxGeometry x="300.71" y="17194" width="80" height="40" as="geometry"/>
                </mxCell>
                <mxCell id="snQ3fgvoVq1wNDVxWiew-10" style="edgeStyle=none;html=1;entryX=0.5;entryY=0;entryDx=0;entryDy=0;" parent="1" source="snQ3fgvoVq1wNDVxWiew-11" target="snQ3fgvoVq1wNDVxWiew-9" edge="1">
                    <mxGeometry relative="1" as="geometry"/>
                </mxCell>
                <mxCell id="snQ3fgvoVq1wNDVxWiew-11" value="pwm controller" style="rounded=0;whiteSpace=wrap;html=1;" parent="1" vertex="1">
                    <mxGeometry x="300.71" y="17124" width="80" height="40" as="geometry"/>
                </mxCell>
                <mxCell id="snQ3fgvoVq1wNDVxWiew-12" value="" style="endArrow=none;dashed=1;html=1;dashPattern=1 3;strokeWidth=2;" parent="1" edge="1">
                    <mxGeometry width="50" height="50" relative="1" as="geometry">
                        <mxPoint x="60.709999999999994" y="16834" as="sourcePoint"/>
                        <mxPoint x="760.71" y="16834" as="targetPoint"/>
                    </mxGeometry>
                </mxCell>
                <mxCell id="snQ3fgvoVq1wNDVxWiew-13" value="" style="endArrow=none;dashed=1;html=1;dashPattern=1 3;strokeWidth=2;exitX=-0.001;exitY=0.724;exitDx=0;exitDy=0;exitPerimeter=0;" parent="1" source="snQ3fgvoVq1wNDVxWiew-1" edge="1">
                    <mxGeometry width="50" height="50" relative="1" as="geometry">
                        <mxPoint x="70.71" y="17084" as="sourcePoint"/>
                        <mxPoint x="760.71" y="17084" as="targetPoint"/>
                    </mxGeometry>
                </mxCell>
                <mxCell id="snQ3fgvoVq1wNDVxWiew-14" value="应用层" style="text;html=1;strokeColor=none;fillColor=none;align=center;verticalAlign=middle;whiteSpace=wrap;rounded=0;" parent="1" vertex="1">
                    <mxGeometry x="80.71" y="16744" width="60" height="25" as="geometry"/>
                </mxCell>
                <mxCell id="snQ3fgvoVq1wNDVxWiew-15" value="内核层" style="text;html=1;strokeColor=none;fillColor=none;align=center;verticalAlign=middle;whiteSpace=wrap;rounded=0;" parent="1" vertex="1">
                    <mxGeometry x="70.71" y="16934" width="60" height="25" as="geometry"/>
                </mxCell>
                <mxCell id="snQ3fgvoVq1wNDVxWiew-16" value="硬件层" style="text;html=1;strokeColor=none;fillColor=none;align=center;verticalAlign=middle;whiteSpace=wrap;rounded=0;" parent="1" vertex="1">
                    <mxGeometry x="70.71" y="17124" width="60" height="25" as="geometry"/>
                </mxCell>
                <mxCell id="snQ3fgvoVq1wNDVxWiew-17" value="通过sysfs提供应用接口" style="rounded=0;whiteSpace=wrap;html=1;" parent="1" vertex="1">
                    <mxGeometry x="480.71" y="16861.5" width="200" height="40" as="geometry"/>
                </mxCell>
                <mxCell id="snQ3fgvoVq1wNDVxWiew-18" style="edgeStyle=none;html=1;entryX=0.5;entryY=0;entryDx=0;entryDy=0;" parent="1" source="snQ3fgvoVq1wNDVxWiew-19" target="snQ3fgvoVq1wNDVxWiew-17" edge="1">
                    <mxGeometry relative="1" as="geometry"/>
                </mxCell>
                <mxCell id="snQ3fgvoVq1wNDVxWiew-19" value="/sys/class/pwm/pwmchipX/" style="rounded=0;whiteSpace=wrap;html=1;" parent="1" vertex="1">
                    <mxGeometry x="480.71" y="16751.5" width="200" height="40" as="geometry"/>
                </mxCell>
                <mxCell id="snQ3fgvoVq1wNDVxWiew-20" style="edgeStyle=none;html=1;" parent="1" source="snQ3fgvoVq1wNDVxWiew-21" target="snQ3fgvoVq1wNDVxWiew-19" edge="1">
                    <mxGeometry relative="1" as="geometry"/>
                </mxCell>
                <mxCell id="snQ3fgvoVq1wNDVxWiew-21" value="read/write" style="rounded=0;whiteSpace=wrap;html=1;" parent="1" vertex="1">
                    <mxGeometry x="480.71" y="16671.5" width="200" height="40" as="geometry"/>
                </mxCell>
                <mxCell id="snQ3fgvoVq1wNDVxWiew-22" value="pwm device" style="rounded=0;whiteSpace=wrap;html=1;" parent="1" vertex="1">
                    <mxGeometry x="170.70999999999998" y="17021.5" width="80" height="40" as="geometry"/>
                </mxCell>
                <mxCell id="snQ3fgvoVq1wNDVxWiew-23" style="edgeStyle=none;html=1;entryX=0.5;entryY=0;entryDx=0;entryDy=0;startArrow=none;startFill=0;endArrow=classic;endFill=1;" parent="1" source="snQ3fgvoVq1wNDVxWiew-24" target="snQ3fgvoVq1wNDVxWiew-22" edge="1">
                    <mxGeometry relative="1" as="geometry"/>
                </mxCell>
                <mxCell id="snQ3fgvoVq1wNDVxWiew-24" value="device-tree" style="rounded=0;whiteSpace=wrap;html=1;" parent="1" vertex="1">
                    <mxGeometry x="170.70999999999998" y="16941.5" width="80" height="40" as="geometry"/>
                </mxCell>
                <mxCell id="snQ3fgvoVq1wNDVxWiew-25" value="/proc/device-tree/[node]" style="rounded=0;whiteSpace=wrap;html=1;" parent="1" vertex="1">
                    <mxGeometry x="170.70999999999998" y="16744" width="80" height="40" as="geometry"/>
                </mxCell>
                <mxCell id="snQ3fgvoVq1wNDVxWiew-26" value="" style="shape=flexArrow;endArrow=classic;startArrow=classic;html=1;width=10;" parent="1" edge="1">
                    <mxGeometry width="100" height="100" relative="1" as="geometry">
                        <mxPoint x="340.71" y="17054" as="sourcePoint"/>
                        <mxPoint x="340.21" y="16884" as="targetPoint"/>
                    </mxGeometry>
                </mxCell>
                <mxCell id="snQ3fgvoVq1wNDVxWiew-27" value="platform bus" style="text;html=1;strokeColor=none;fillColor=none;align=center;verticalAlign=middle;whiteSpace=wrap;rounded=0;" parent="1" vertex="1">
                    <mxGeometry x="310.71" y="16844" width="60" height="30" as="geometry"/>
                </mxCell>
                <mxCell id="snQ3fgvoVq1wNDVxWiew-28" value="" style="endArrow=none;startArrow=classic;html=1;exitX=1;exitY=0.5;exitDx=0;exitDy=0;endFill=0;" parent="1" source="snQ3fgvoVq1wNDVxWiew-22" edge="1">
                    <mxGeometry width="50" height="50" relative="1" as="geometry">
                        <mxPoint x="250.70999999999998" y="17034" as="sourcePoint"/>
                        <mxPoint x="330.71" y="16981.5" as="targetPoint"/>
                    </mxGeometry>
                </mxCell>
                <mxCell id="snQ3fgvoVq1wNDVxWiew-29" value="" style="endArrow=classic;startArrow=none;html=1;endFill=1;startFill=0;" parent="1" edge="1">
                    <mxGeometry width="50" height="50" relative="1" as="geometry">
                        <mxPoint x="350.71" y="16984" as="sourcePoint"/>
                        <mxPoint x="410.71" y="17044" as="targetPoint"/>
                    </mxGeometry>
                </mxCell>
                <mxCell id="snQ3fgvoVq1wNDVxWiew-30" value="" style="endArrow=none;startArrow=classic;html=1;entryX=0.5;entryY=1;entryDx=0;entryDy=0;exitX=0.5;exitY=0;exitDx=0;exitDy=0;endFill=0;" parent="1" source="snQ3fgvoVq1wNDVxWiew-24" target="snQ3fgvoVq1wNDVxWiew-25" edge="1">
                    <mxGeometry width="50" height="50" relative="1" as="geometry">
                        <mxPoint x="340.71" y="16874" as="sourcePoint"/>
                        <mxPoint x="390.71" y="16824" as="targetPoint"/>
                    </mxGeometry>
                </mxCell>
                <mxCell id="snQ3fgvoVq1wNDVxWiew-31" value="" style="endArrow=classic;startArrow=none;html=1;exitX=0.5;exitY=1;exitDx=0;exitDy=0;entryX=0.5;entryY=0;entryDx=0;entryDy=0;startFill=0;" parent="1" source="snQ3fgvoVq1wNDVxWiew-22" target="snQ3fgvoVq1wNDVxWiew-11" edge="1">
                    <mxGeometry width="50" height="50" relative="1" as="geometry">
                        <mxPoint x="340.71" y="17054" as="sourcePoint"/>
                        <mxPoint x="390.71" y="17004" as="targetPoint"/>
                    </mxGeometry>
                </mxCell>
                <mxCell id="snQ3fgvoVq1wNDVxWiew-32" style="edgeStyle=none;html=1;startArrow=none;startFill=0;endArrow=classic;endFill=1;" parent="1" source="snQ3fgvoVq1wNDVxWiew-33" target="snQ3fgvoVq1wNDVxWiew-27" edge="1">
                    <mxGeometry relative="1" as="geometry"/>
                </mxCell>
                <mxCell id="snQ3fgvoVq1wNDVxWiew-33" value="/sys/bus&lt;br&gt;/platform/[node]" style="rounded=0;html=1;whiteSpace=wrap;" parent="1" vertex="1">
                    <mxGeometry x="290.71" y="16744" width="100" height="40" as="geometry"/>
                </mxCell>
                <mxCell id="snQ3fgvoVq1wNDVxWiew-34" value="" style="rounded=0;whiteSpace=wrap;html=1;" parent="1" vertex="1">
                    <mxGeometry x="240.70999999999998" y="17894" width="450" height="410" as="geometry"/>
                </mxCell>
                <mxCell id="snQ3fgvoVq1wNDVxWiew-35" style="edgeStyle=none;html=1;entryX=0.5;entryY=0;entryDx=0;entryDy=0;" parent="1" source="snQ3fgvoVq1wNDVxWiew-36" target="snQ3fgvoVq1wNDVxWiew-38" edge="1">
                    <mxGeometry relative="1" as="geometry"/>
                </mxCell>
                <mxCell id="snQ3fgvoVq1wNDVxWiew-36" value="read/write" style="rounded=0;whiteSpace=wrap;html=1;" parent="1" vertex="1">
                    <mxGeometry x="410.71" y="17914" width="80" height="40" as="geometry"/>
                </mxCell>
                <mxCell id="snQ3fgvoVq1wNDVxWiew-37" style="edgeStyle=none;html=1;entryX=0.5;entryY=0;entryDx=0;entryDy=0;" parent="1" source="snQ3fgvoVq1wNDVxWiew-38" target="snQ3fgvoVq1wNDVxWiew-40" edge="1">
                    <mxGeometry relative="1" as="geometry"/>
                </mxCell>
                <mxCell id="snQ3fgvoVq1wNDVxWiew-38" value="&lt;div style=&quot;font-family: Consolas, &amp;quot;Courier New&amp;quot;, monospace; font-size: 14px; line-height: 19px;&quot;&gt;/sys/class/pwm/pwmchip1/pwm0/&lt;/div&gt;" style="rounded=0;whiteSpace=wrap;html=1;labelBackgroundColor=default;" parent="1" vertex="1">
                    <mxGeometry x="330.71" y="17994" width="240" height="40" as="geometry"/>
                </mxCell>
                <mxCell id="snQ3fgvoVq1wNDVxWiew-39" style="edgeStyle=none;html=1;entryX=0.5;entryY=0;entryDx=0;entryDy=0;" parent="1" source="snQ3fgvoVq1wNDVxWiew-40" target="snQ3fgvoVq1wNDVxWiew-42" edge="1">
                    <mxGeometry relative="1" as="geometry">
                        <Array as="points">
                            <mxPoint x="330.71" y="18094"/>
                        </Array>
                    </mxGeometry>
                </mxCell>
                <mxCell id="snQ3fgvoVq1wNDVxWiew-40" value="PWM Core" style="rounded=0;whiteSpace=wrap;html=1;" parent="1" vertex="1">
                    <mxGeometry x="410.71" y="18074" width="80" height="40" as="geometry"/>
                </mxCell>
                <mxCell id="snQ3fgvoVq1wNDVxWiew-41" style="edgeStyle=none;html=1;entryX=0.5;entryY=0;entryDx=0;entryDy=0;" parent="1" source="snQ3fgvoVq1wNDVxWiew-42" target="snQ3fgvoVq1wNDVxWiew-45" edge="1">
                    <mxGeometry relative="1" as="geometry"/>
                </mxCell>
                <mxCell id="snQ3fgvoVq1wNDVxWiew-42" value="pwmchip&amp;nbsp;&lt;br&gt;provider" style="rounded=0;whiteSpace=wrap;html=1;" parent="1" vertex="1">
                    <mxGeometry x="290.71" y="18154" width="80" height="40" as="geometry"/>
                </mxCell>
                <mxCell id="snQ3fgvoVq1wNDVxWiew-43" style="edgeStyle=none;html=1;exitX=0.5;exitY=0;exitDx=0;exitDy=0;entryX=1;entryY=0.5;entryDx=0;entryDy=0;" parent="1" source="snQ3fgvoVq1wNDVxWiew-44" target="snQ3fgvoVq1wNDVxWiew-40" edge="1">
                    <mxGeometry relative="1" as="geometry">
                        <Array as="points">
                            <mxPoint x="570.71" y="18094"/>
                        </Array>
                    </mxGeometry>
                </mxCell>
                <mxCell id="snQ3fgvoVq1wNDVxWiew-44" value="PWM&lt;br&gt;consumer" style="rounded=0;whiteSpace=wrap;html=1;" parent="1" vertex="1">
                    <mxGeometry x="530.71" y="18154" width="80" height="40" as="geometry"/>
                </mxCell>
                <mxCell id="snQ3fgvoVq1wNDVxWiew-45" value="pwm register" style="rounded=0;whiteSpace=wrap;html=1;" parent="1" vertex="1">
                    <mxGeometry x="290.71" y="18234" width="80" height="40" as="geometry"/>
                </mxCell>
                <mxCell id="snQ3fgvoVq1wNDVxWiew-46" value="" style="endArrow=none;dashed=1;html=1;dashPattern=1 3;strokeWidth=2;" parent="1" edge="1">
                    <mxGeometry width="50" height="50" relative="1" as="geometry">
                        <mxPoint x="250.70999999999998" y="18054" as="sourcePoint"/>
                        <mxPoint x="690.71" y="18054" as="targetPoint"/>
                    </mxGeometry>
                </mxCell>
                <mxCell id="snQ3fgvoVq1wNDVxWiew-47" value="" style="endArrow=none;dashed=1;html=1;dashPattern=1 3;strokeWidth=2;" parent="1" edge="1">
                    <mxGeometry width="50" height="50" relative="1" as="geometry">
                        <mxPoint x="250.70999999999998" y="18214" as="sourcePoint"/>
                        <mxPoint x="690.71" y="18214" as="targetPoint"/>
                    </mxGeometry>
                </mxCell>
                <mxCell id="snQ3fgvoVq1wNDVxWiew-48" value="应用层" style="text;html=1;strokeColor=none;fillColor=none;align=center;verticalAlign=middle;whiteSpace=wrap;rounded=0;" parent="1" vertex="1">
                    <mxGeometry x="590.71" y="17921.5" width="60" height="25" as="geometry"/>
                </mxCell>
                <mxCell id="snQ3fgvoVq1wNDVxWiew-49" value="核心层" style="text;html=1;strokeColor=none;fillColor=none;align=center;verticalAlign=middle;whiteSpace=wrap;rounded=0;" parent="1" vertex="1">
                    <mxGeometry x="590.71" y="18064" width="60" height="25" as="geometry"/>
                </mxCell>
                <mxCell id="snQ3fgvoVq1wNDVxWiew-50" value="总线驱动" style="text;html=1;strokeColor=none;fillColor=none;align=center;verticalAlign=middle;whiteSpace=wrap;rounded=0;" parent="1" vertex="1">
                    <mxGeometry x="580.71" y="18224" width="60" height="25" as="geometry"/>
                </mxCell>
                <mxCell id="snQ3fgvoVq1wNDVxWiew-51" value="PWM系统框架" style="text;html=1;align=center;verticalAlign=middle;whiteSpace=wrap;rounded=0;fontSize=20;" parent="1" vertex="1">
                    <mxGeometry x="56.5" y="16523" width="178.5" height="30" as="geometry"/>
                </mxCell>
            </root>
        </mxGraphModel>
    </diagram>
</mxfile>